<?xml version="1.0" encoding="utf-8"?>
<!-- Generator: Adobe Illustrator 16.0.0, SVG Export Plug-In . SVG Version: 6.00 Build 0)  -->
<!DOCTYPE svg PUBLIC "-//W3C//DTD SVG 1.1//EN" "http://www.w3.org/Graphics/SVG/1.1/DTD/svg11.dtd">
<svg version="1.1" xmlns="http://www.w3.org/2000/svg" xmlns:xlink="http://www.w3.org/1999/xlink" x="0px" y="0px" width="49px"
	 height="20.203px" viewBox="0 0 49 20.203" enable-background="new 0 0 49 20.203" xml:space="preserve">
<g id="Layer_4" display="none">
	<g display="inline">
		<path fill-rule="evenodd" clip-rule="evenodd" fill="#FCD243" d="M53.261-1.065c0.265-0.053,0.658-0.147,0.784,0.196
			c0.19,0.513-0.772,0.828-1.372,1.078c-0.65,0.272-1.671,0.936-1.957,0.979c-0.305,0.046-1.172-0.28-1.176-0.293
			c-0.37-1.044,2.516-0.813,2.84-1.078C52.93-0.632,52.476-0.904,53.261-1.065z"/>
		<path fill-rule="evenodd" clip-rule="evenodd" fill="#FCD243" d="M5.457,0.797c0.022-0.123,0.193-0.099,0.194,0
			C5.608,0.939,5.564,0.787,5.457,0.797z"/>
		<path fill-rule="evenodd" clip-rule="evenodd" fill="#FCD243" d="M54.144,4.421c0.713-0.668,1.751-0.822,2.84-1.372
			c0.493-0.247,1.035-0.822,1.668-1.077c0.629-0.254,1.192-0.182,1.663-0.391c0.354-0.157,1.504-1.051,1.666-0.294
			c0.135,0.637-1.243,0.381-1.666,0.587c-0.745,0.366-1.571,0.795-2.644,1.175C56.454,3.481,55.415,4.114,54.144,4.421z"/>
		<path fill-rule="evenodd" clip-rule="evenodd" fill="#FCD243" d="M3.104,3.148C4.513,2.59,4.567,4.565,3.594,4.617
			C2.926,4.654,2.15,3.526,3.104,3.148z"/>
		<path fill-rule="evenodd" clip-rule="evenodd" fill="#FCD243" d="M52.673,4.029c0.948-0.846,1.11,0.852,1.177,0.883
			c0.155,0.073,1.86-0.438,2.155-0.394c1.626,0.242,0.753,2.877-0.196,3.528c-0.188,0.13-0.319,0.605-0.293,0.587
			c-0.189,0.138-1.456,0.677-1.862,0.588c-0.668-0.146-1.146-1.424-0.98-1.96c0.045-0.139-0.195-0.581-0.195-0.588
			c0.023-0.115,0.645-0.909,0.588-1.075c-0.109-0.325-0.933,0.052-0.98-0.687c-0.008-0.162,0.205-0.57,0.197-0.588
			c-0.051-0.115-0.604-0.023-0.687-0.393C51.428,3.178,53.055,2.426,52.673,4.029z"/>
		<path fill-rule="evenodd" clip-rule="evenodd" fill="#FCD243" d="M46.896,4.226C47.223,3.989,46.657,4.555,46.896,4.226
			L46.896,4.226z"/>
		<path fill-rule="evenodd" clip-rule="evenodd" fill="#FCD243" d="M50.128,4.324c0-0.039,0.146-0.147,0.195-0.099
			C50.425,4.328,50.128,4.533,50.128,4.324z"/>
		<path fill-rule="evenodd" clip-rule="evenodd" fill="#FCD243" d="M48.56,4.617c1.102-0.319-0.062,1.947-0.49,0.981
			C47.938,5.301,48.529,4.626,48.56,4.617z"/>
		<path fill-rule="evenodd" clip-rule="evenodd" fill="#FCD243" d="M2.124,4.717c0.307-0.283,0.727,0.717,0.295,0.782
			C2.072,5.553,1.81,5.004,2.124,4.717z"/>
		<path fill-rule="evenodd" clip-rule="evenodd" fill="#FCD243" d="M51.01,5.599c-0.048-0.048,0.167-0.125,0.195-0.1
			C51.25,5.545,51.036,5.625,51.01,5.599z"/>
		<path fill-rule="evenodd" clip-rule="evenodd" fill="#FCD243" d="M2.419,6.086C2.682,5.928,3.24,6.1,3.006,6.479
			C2.818,6.783,1.877,6.413,2.419,6.086z"/>
		<path fill-rule="evenodd" clip-rule="evenodd" fill="#FCD243" d="M49.147,6.674c0.006-0.005-0.008-0.096,0-0.097
			C49.617,6.493,48.681,7.206,49.147,6.674z"/>
		<path fill-rule="evenodd" clip-rule="evenodd" fill="#FCD243" d="M-0.127,8.634C0.181,8.986,0.702,8.996,1.146,9.32
			c0.429,0.311,1.445,1.383,1.175,1.762c-0.429,0.604-1.026-0.468-1.372-0.783c-0.338-0.306-0.319,0-0.49-0.588
			C0.324,9.246-0.042,9.026-0.127,8.634z"/>
		<path fill-rule="evenodd" clip-rule="evenodd" fill="#FCD243" d="M52.87,9.222c0.014-0.004,0.301,0.062,0.293,0.195
			C53.14,9.884,52.087,9.487,52.87,9.222z"/>
		<path fill-rule="evenodd" clip-rule="evenodd" fill="#FCD243" d="M54.731,9.516C54.975,9.133,54.875,9.84,54.731,9.516
			L54.731,9.516z"/>
		<path fill-rule="evenodd" clip-rule="evenodd" fill="#FCD243" d="M54.438,10.494c0.353-0.354,0.144,0.341-0.099,0.1
			C54.269,10.522,54.431,10.502,54.438,10.494z"/>
		<path fill-rule="evenodd" clip-rule="evenodd" fill="#FCD243" d="M3.202,13.337c-0.382-0.035-1.712-0.586-1.665-0.883
			C1.598,12.076,3.372,12.733,3.202,13.337z"/>
		<path fill-rule="evenodd" clip-rule="evenodd" fill="#FCD243" d="M55.025,13.141c0.133-0.134,0.287-0.399,0.588-0.099
			C56.044,13.475,54.404,13.762,55.025,13.141z"/>
		<path fill-rule="evenodd" clip-rule="evenodd" fill="#FCD243" d="M55.123,14.609c0.296-0.08-0.005,0.485-0.195,0.293
			C54.757,14.733,55.063,14.625,55.123,14.609z"/>
		<path fill-rule="evenodd" clip-rule="evenodd" fill="#FCD243" d="M51.01,15.785c0.379-0.057,0.063,0.649-0.294,0.489
			C50.509,16.185,50.712,15.829,51.01,15.785z"/>
		<path fill-rule="evenodd" clip-rule="evenodd" fill="#FCD243" d="M53.556,16.471C53.8,16.09,53.699,16.796,53.556,16.471
			L53.556,16.471z"/>
		<path fill-rule="evenodd" clip-rule="evenodd" fill="#FCD243" d="M4.28,16.665c0.104-0.511,0.343,0.54,0,0.197
			C4.266,16.848,4.274,16.69,4.28,16.665z"/>
		<path fill-rule="evenodd" clip-rule="evenodd" fill="#FCD243" d="M3.104,18.626C3.383,18.348,3.5,18.928,3.3,19.018
			C3.129,19.097,2.876,18.854,3.104,18.626z"/>
		<path fill-rule="evenodd" clip-rule="evenodd" fill="#FCD243" d="M34.159-25.066c0.188,0.459,0.27,1.042,0,1.568
			c-0.164,0.321-0.841,0.485-0.883,0.588c-0.055,0.139,0.254,1.362,0.1,1.764c-0.181,0.467-0.882,0.846-0.98,1.176
			c-0.078,0.256,0.003,1.262,0,1.566c0.002-0.127-0.347,0.512-0.196,0.686c0.408,0.474,1.425-1.276,1.471-1.567
			c0.046-0.301-0.214-0.704-0.197-0.979c0.054-0.852,0.384-2.364,1.077-2.745c0.092-0.048,0.429,0.077,0.491,0
			c0.318-0.384,0.494-1.871,0.783-2.35c0.028-0.046,0.284-0.074,0.294-0.098c0.083-0.22-0.057-0.547,0-0.783
			c0.086-0.36,0.525-0.604,0.686-0.98c0.234-0.545,0.146-1.177,0.294-1.764c0.121-0.479,0.562-1.046,0.687-1.566
			c0.186-0.783,0.313-0.762,0.685-1.372c0.372-0.609,0.522-1.461,0.784-1.861c0.055-0.084,0.447-0.186,0.491-0.294
			c0.004-0.011-0.194-0.172-0.198-0.294c-0.012-0.515,0.817-1.769,0.98-2.449c0.024-0.103-0.215-0.217-0.196-0.489
			c-0.005,0.09,0.251-0.866,0.294-0.98c0.205-0.537,0.426-0.961,0.588-1.566c0.143-0.526,0.441-0.959,0.588-1.471
			c1.021-3.578,2.114-6.188,2.352-8.522c0.073-0.726,0.878-2.089,0.686-0.098c-0.032,0.335-0.3,1.536-0.195,1.176
			c-0.241,0.847-0.728,2.277-1.177,3.918c-0.261,0.962-0.853,2.023-1.076,2.842c-0.363,1.325-0.617,3.665-1.472,4.897
			c-0.035,0.053-0.273,0.061-0.293,0.099c-0.388,0.765-0.503,1.958-0.783,3.036c-0.09,0.347-0.33,0.647-0.393,0.979
			c-0.082,0.435,0.068,1.029,0,1.471c-0.125,0.814-0.517,1.663-0.783,2.546c-0.211,0.7-0.251,1.431-0.489,2.058
			c-0.162,0.424-0.586,0.783-0.687,1.177c-0.042,0.165,0.158,0.218,0.1,0.391c-0.321,0.934-0.912,2.102-1.471,2.842
			c-0.381,0.502-1.41,1.011-1.371,1.959c0.009,0.244,0.706,1.35,1.077,1.861c0.84,1.154,0.703-0.798,1.372-1.372
			c0.254,0.204-0.176,1.581-0.49,1.86c0.008-0.006-0.376,0.185-0.393,0.1c0.046,0.228,0.42,0.414,0.784,0.293
			c0.331-0.108,0.386-1.061,0.98-1.862c0.149-0.202,0.524-0.381,0.587-0.488c0.225-0.385,0.139-1.071,0.392-1.567
			c0.157-0.308,0.54-0.411,0.688-0.783c0.409-1.05,0.141-3.062,0.979-3.723c0.047-0.039,0.256,0.048,0.293,0
			c0.303-0.398,0.674-1.447,1.077-2.058c0.125-0.19,0.427-0.266,0.49-0.393c0.255-0.508,0.174-1.236,0.489-1.47
			c0.867-0.643,1.617,0.266,1.568,0.883c-0.028,0.326-0.425,0.451-0.59,0.685c-0.189,0.273-0.258,0.85-0.587,1.372
			c-0.302,0.482-0.874,0.92-1.076,1.371c-0.145,0.319-0.077,0.711-0.196,0.979c-0.463,1.033-1.129,1.467-1.275,2.45
			c-0.076,0.533,0.096,1.001,0,1.666c-0.047,0.34-0.271,0.596-0.293,0.977c-0.014,0.227,0.127,0.471,0.1,0.688
			c-0.033,0.247-0.248,0.503-0.295,0.88c-0.145,1.174,0.279,2.274-0.295,2.842c-0.061,0.062-0.569,0.151-0.588,0.196
			c-0.387,0.96,0.379,1.438,0.883,0.588c0.246,0.065-0.401,0.992-0.393,1.077c0.039,0.341,0.524,0.257,0.785,0.783
			c0.151,0.307,0.446,2.086,0.391,2.645c-0.048,0.479-0.209,2.257,0.98,2.059c0.638-0.106,0.876-1.357,1.763-1.471
			C43.632-7.848,45.157-8.78,45.72-9c-0.831,0.654-1.012,1.575-1.668,1.764c-0.292,0.086-0.863,0.52-0.88,0.588
			c-0.134,0.555,0.419,0.867,0.588,0.881c0.524,0.046,0.915-1.359,1.372-1.469c0.531-0.128,0.882,0.395,0.881,0.393
			c0.326,0.766-0.859,1.979-0.785,2.743c0.032,0.309,0.391,0.496,0.589,0.979c0.315,0.763,0.411,2.104,1.371,2.057
			c0.528-0.025,1.404-1.534,1.96-1.859c0.396-0.233,1.047-0.222,1.47-0.49c1.022-0.651,0.916-1.226,1.763-1.471
			c0.344-0.099,2.322-1.498,2.548-1.272c0.031,0.03,0.447-0.042-0.196,0.686c-0.185,0.21-2.806,1.616-3.43,2.449
			c-0.735,0.982-0.994,2.23-1.469,3.037C49.57,0.459,48.201,1.46,49.05,1.776c0.562,0.209,0.569-0.603,1.175-0.391
			c-0.548,0.729-2.085,1.222-3.037,2.056c-0.263,0.23-0.861,0.754-0.979,0.979c-0.139,0.261,0.057,0.479-0.099,0.98
			c-0.113,0.368-0.529,0.531-0.39,0.783c0.375,0.689,1.817-0.793,2.056-0.294c0.187,0.389-1.231,0.588-1.371,0.98
			c-0.178,0.498,0.055,1.133,0.588,1.273c0.272,0.071,0.283-0.39,0.294-0.393c0.058-0.017,0.243,0.177,0.391,0.099
			c0.245-0.132,0.414-0.556,0.688-0.686c0.591-0.283,0.94,0.082,1.272-0.099c0.64-0.346,0.179-1.114,0.393-1.274
			c0.209-0.154,0.228,0.278,0.294,0.294c0.195,0.052,0.779-0.35,1.077,0c0.174,0.207-0.021,0.729,0,0.883
			c0.036,0.259,0.382,0.757,0.294,0.98c-0.191,0.484-0.859,0.139-1.175,0.391c-0.167,0.133-0.543,1.564-0.49,1.666
			c0.067,0.127,1.048,0.565,1.47,0.588c0.662,0.035,0.664-0.49,0.783,0.096c0.029,0.149,1.21,0.974,1.469,0.98
			c1.155,0.041,1.874-1.852,2.744-1.86c1.437-0.015,0.161,1.296-0.49,1.763c-0.358,0.257-1.104,0.208-1.567,0.588
			c-0.188,0.154-0.058,0.371-0.197,0.588c-0.226,0.356-1.03,0.643-1.468,1.177c-0.165,0.199-0.165,0.544-0.295,0.685
			c-0.305,0.326-1.781,1.189-2.35,1.371c-0.313,0.101-1.129,0.109-1.176,0.197c-0.301,0.53,2.412,1.59,2.841,1.763
			c0.759,0.308,1.277-0.002,2.546,0.294c0.467,0.109,0.802,0.379,0.98,0.392c0.53,0.035,2.214-0.553,2.841-0.588
			c0.418-0.022,1.007-0.033,1.078,0.196c0.203,0.672-4.569,0.301-2.743,1.176c-0.604,0.284-1.26,0.079-1.862,0.195
			c-0.247,0.048-0.46,0.302-0.685,0.295c-0.268-0.012-0.426-0.322-0.688-0.392c-0.539-0.149-1.485,0.142-2.251,0.195
			c-0.733,0.048-1.314-0.241-1.667-0.195c-0.729,0.089-1.149,0.821-1.666,0.783c-0.099-0.009-0.587-0.294-0.587-0.294
			c-0.675,0.452,0.2,1.426,0.49,1.567c0.717,0.351,2.482-0.124,2.548,0.294c0.121,0.801-2.349,0.861-2.842,0.979
			c-0.044,0.194,0.537,0.053,0.588,0.099c0.119,0.114,0.101,1.367,0.195,1.47c0.472,0.506-1.384,0.985-1.762,0.782
			c-0.484-0.255-0.625-1.002-0.393-1.468c0.137-0.279,1.805-1.597,0-1.274c-0.361,0.065-0.709,0.876-1.373,0.979
			c-0.197,0.03-0.809-0.367-1.37-0.393c-0.216-0.009-0.371,0.125-0.49,0.1c-0.312-0.071-0.558-0.439-0.882-0.392
			c-0.493,0.071-0.394,0.457-0.687,0.685c-0.579,0.452-1.678,0.539-1.86,0.785c-0.086,0.115,0.098,0.31,0.098,0.49
			c0,0.315-0.513,0.783-0.098,0.88c0.736,0.173-0.457,0.268-0.688,0.196c-0.542-0.168-0.539-1.264-0.781-1.371
			c-0.555-0.244-0.963,0.727-1.568,0.979c-0.476,0.198-0.656-0.094-0.883,0.099c-0.261,0.224,0.455,0.412-0.195,0.586
			c-0.183-0.393-0.058-0.623-0.882-0.489c-0.126,0.021-1.279,0.535-1.37,0.687c-0.264,0.436,0.229,0.169,0.195,0.586
			c-0.031,0.386-0.476,0.514-0.488,0.591c-0.102,0.514,0.188,0.36,0.195,0.684c0.014,0.911-1.881,2.213-2.94,1.372
			c-0.321-0.256-0.296-1.035-0.979-0.588c-0.513,0.336-0.425,1.062-0.784,1.665c-0.088,0.146-0.908,1.11-0.098,1.275
			c0.418,0.084,0.523-0.801,0.882-0.883c0.487-0.113,1.133,0.821,1.568,0.883c0.329,0.045,0.089-0.193,0.391-0.296
			c0.306-0.102,0.787,0.17,0.979,0.098c0.139-0.051,0.215-0.525,0.588-0.685c0.245-0.105,0.675,0.067,0.785,0
			c0.449-0.279,0.325-0.813,0.586-1.078c0.551-0.557,1.121-0.259,1.47,0c0.871,0.649,0.812-0.534,0.882,0.589
			c0.024,0.393,0.052,1.611-0.588,1.859c-0.928,0.362-0.297-0.063-0.686,0.59c-0.389,0.652,0.439,0.323,0.293,0.979
			c-0.077,0.357-0.12-0.002-0.391,0.196c-0.333,0.241-0.497,0.835-0.588,0.881c-0.25,0.125-1.273,0.03-1.566-0.195
			c-0.102-0.076-0.036-0.373-0.197-0.588c-0.303-0.403-0.16-0.099-0.295-0.587c-0.053-0.197-0.503-0.963-0.586-0.98
			c-0.369-0.081-0.359,0.635-0.49,0.686c-0.498,0.19-0.278-0.266-0.587-0.293c-0.725-0.066-1.224,0.956-1.079,1.565
			c0.156,0.657,1.011,1.162,1.079,1.667c0.077,0.586-0.528,1.106-0.197,1.665c0.133,0.224,0.653,0.375,0.685,0.588
			c0.104,0.669-0.446,0.525-0.587,0.783c-0.175,0.322,0.024,0.609-0.098,0.882c-0.241,0.544-1.21,0.968-1.86,0.883
			c-0.728-0.099-0.82-0.867-1.372-0.981c-0.3-0.06-0.62,0.283-0.882,0.294c-0.564,0.024-1.576-0.453-1.666-0.587
			c-0.062-0.095,0.279-0.69-0.195-0.98c-0.312-0.19-0.831,0.329-0.98,0.295c-0.192-0.044,0.014-0.405-0.487-0.685
			c-0.154-0.088-1.283-0.713-0.688-1.078c0.39-0.239,0.956,1.074,0.979,1.078c-0.098-0.008,0.602-0.753,0.588-0.785
			c-0.078-0.195-0.949-0.152-1.176-0.293c-0.632-0.395-0.368-1.346-1.077-1.274c-0.802,0.082-0.16,1.306-0.392,1.861
			c-0.173,0.412-0.875,0.6-1.078,0.687c-0.385,0.162-0.611,0.685-1.077,0.882c-2.161,0.91-4.624-0.526-4.312-3.136
			c0.096-0.794,0.478-1.521,0.393-2.35c-0.025-0.242-0.063-1.798-0.098-1.863c-0.067-0.128-0.454-0.165-0.49-0.292
			c-0.07-0.259,0.188-0.422,0.195-0.589c0.032-0.621-1.111-2.189-1.371-2.842c-0.148-0.374-0.064-0.648-0.195-0.783
			c-0.036-0.036-1.431-0.234-0.979-0.687c0.35-0.351,1.107,0.637,1.468,0.589c0.166-0.022,0.798-0.717,0.98-1.077
			c0.078-0.155-0.157-0.266-0.099-0.49c0.124-0.467,0.504-0.462,0.49-0.686c-0.039-0.646-1.211-1.348-1.47-0.979
			c-0.296,0.418,0.771,0.998,0.784,1.077c0.159,0.941-1.069,1.265-1.47,0.588c-0.163-0.276,0.122-0.628,0.098-0.785
			c-0.013-0.08-0.312-0.099-0.393-0.392c-0.036-0.137,0.143-0.203,0.099-0.293c-0.238-0.486-0.698-1.346-0.881-1.471
			c-0.265-0.178-0.463,0.119-0.588,0.1c-0.715-0.11-0.564-1.083-0.883-1.175c-0.365-0.106-1.115,0.636-0.487,0.684
			c0.064,0.006,0.245-0.183,0.391-0.098c0.132,0.079,0.177,0.612,0.293,0.687c0.326,0.209,0.567-0.178,0.784,0.099
			c0.111,0.142-0.195,0.272-0.195,0.292c0.001,0.286,0.585,0.763,0.587,0.98c-0.001-0.075-0.281,0.165-0.295,0.195
			c-0.325,0.852,0.198,0.442-0.392,0.688c-0.119,0.048-0.958,0.733-1.272,0.685c-0.023-0.003,0.022-0.277,0-0.294
			c-0.359-0.244-0.577,0.095-0.783-0.294c-0.25-0.47,0.333-0.92,0.293-1.37c-0.013-0.146-0.512-1.094-0.489-1.078
			c-0.821-0.549-2.203,0.613-2.449-0.784c-0.081-0.455,0.879-1.835-0.295-1.371c-1.005,0.397-0.087,0.321-0.097,0.98
			c-0.003,0.238-0.36,0.824-0.882,0.88c-0.231,0.027-0.926-0.162-1.079-0.392c-0.496-0.744,0.27-0.716-0.783-1.175
			c-0.057-0.025-0.526-0.395-0.685-0.294c-0.092,0.058-0.001,0.69,0,0.687c-0.137,0.482-0.864,1.078-1.567,0.685
			c-0.118-0.063-0.309-0.472-0.489-0.489c-0.408-0.04-0.706,0.404-1.176,0.489c0.789-1.084-0.815-0.831-0.98-1.567
			c-0.052-0.231-0.094-0.489-0.195-0.783c-0.223-0.639-0.314-1.555,0.686-1.176c0.404,0.153-0.135,0.026,0.196,0.391
			c0.577,0.642,1.651,0.083,2.352,0.688c0.354,0.307,0.226,0.658,0.88,0.783c0.655,0.123,1.439-0.088,1.96,0.098
			c0.729,0.258-0.508-1.208-0.098-1.86c0.091-0.146,0.74-0.556,0.881-0.59c1.017-0.233,0.502,0.192,0.489-0.586
			c0,0.026,0.355-1.831,0.393-1.862c0.11-0.091,0.864-0.19,1.175,0c0.106,0.064,0.162,0.631,0.196,0.686
			c0.221,0.352,1.459,0.91,1.667,0.294c0.236-0.705-0.49-0.49-1.078-0.784c-0.062-0.028-0.51-0.564-0.589-0.586
			c-0.355-0.105-1.051,0.348-1.469-0.197c-0.323-0.422,0.113-0.914-0.195-1.47c-0.226-0.401-0.812-0.922-1.078-1.566
			c-0.199-0.481-0.162-0.933-0.392-1.273C3.523,10.446,2.81,10.298,2.124,9.81c-0.42-0.301-0.626-0.891-0.881-1.077
			C0.807,8.413-1.161,7.911-0.521,6.871c0.245-0.396,1.379-0.675,1.96-0.294c0.2,0.129,0.221,0.522,0.393,0.685
			C2.38,7.779,4.513,8.578,5.063,8.047C5.151,7.963,5.097,7.49,5.162,7.262c0.175-0.61,0.903-1.674,0.882-2.35
			C6.018,4.108,4.718,2.406,3.789,1.776c-0.44-0.299-1.114-0.444-1.665-0.783c-0.491-0.305-0.929-0.835-1.37-1.078
			c-0.188-0.104-1.153-0.334-0.98-0.784c0.084-0.219,1.125-0.367,1.568-0.293c0.494,0.084,1.112,0.621,1.567,0.979
			c0.694,0.548,1.143,0.531,1.47,1.078c0.147,0.249,0.554,0.789,0.685,0.881c0.511,0.355,1.575,0.635,1.959,0.589
			C7.245,2.337,7.508,2.059,7.611,2.07C8.166,2.137,9.049,2.937,9.08,1.679C9.093,1.261,8.277,0.51,8.982,0.11
			C9.498-0.181,9.67,0.378,9.962,0.309c1.856-0.452,0.202-3.945,0.293-5.487c-0.01,0.184,0.463-0.803,0.198-0.979
			c-0.252,0.76-0.484,0.431-1.275,0.391C8.844-5.784,8.55-5.535,8.101-5.67C7.819-5.752,7.486-6.285,7.122-6.551
			c-0.088-0.062-0.298,0.054-0.393,0c-1.044-0.59-1.29-1.433-1.567-2.84c-0.157-0.797-0.437-1.569-0.294-2.155
			c0.177-0.722,1.04-1.573,1.077-2.449c0.036-0.859-0.315-1.466-0.099-2.254c0.84,0.375,0.19,1.49,0.979,1.372
			c0.591-0.088,0.194-1.143,0.98-0.784c0.038-0.235-0.445,0.053-0.294-0.293c0.641-0.206,0.42,0.431,0.685,0.489
			c0.425,0.094,0.636-0.43,0.883-0.294c1.002,0.548-0.852,1.743-0.489,2.546c0.105,0.236,0.481,0.122,0.587,0.295
			c0.343,0.559,0.225,1.22,0.688,1.567c0.645,0.487,1.658,0.205,1.957,1.176c0.088,0.28-0.436,1.427-0.097,1.765
			c0.438,0.432,2.438-0.24,2.449-0.59c0.03-0.913-0.577-2.89-0.687-3.035c-0.269-0.366-1.034-0.232-1.176-1.078
			c-0.037-0.228,0.192-1.039,0.196-1.176c0.015-0.484-0.684-3.048-0.488-3.136c0.739-0.333,0.593,1.485,0.782,2.156
			c0.133,0.47,0.977,1.161,1.078,1.567c0.169,0.677-0.205,1.303-0.195,1.567c0.013,0.448,0.417,2.271,1.175,1.176
			c0.488-0.708-0.335-2.198,0.098-2.548c0.222-0.18,0.799-0.478,0.979-0.783c0.408-0.688,0.379-1.369,1.274-1.176
			c0.038-0.236-0.447,0.055-0.296-0.294c1.433,0.147-0.264,2.416,0.882,2.448c0.647,0.019,0.129-0.377,0.491-0.783
			c0.142-0.158,1.38-0.611,1.567-0.98c0.118-0.23,0.197-2.136,0.195-2.351c-0.006-0.999-0.736-1.913-0.881-2.546
			c-0.092-0.397,0.172-3.444-0.588-3.234c-0.25,0.069,0.196,2.718-0.489,1.471c-0.637-1.154-0.782-1.837-0.882-3.527
			c-0.04-0.676-0.315-1.498-0.296-1.86c0.007-0.104,0.218-0.069,0.197-0.197c-0.055-0.357-0.334-0.677-0.393-1.078
			c-0.073-0.513,0.04-1.136,0-1.663c-0.062-0.856-0.519-1.719-0.292-2.745c0.164-0.749,0.821-1.546,0.979-2.644
			c0.112-0.784-0.084-1.74,0.099-2.548c0.875,0.774,0.971,2.745,0.783,4.311c-0.01,0.078-0.206,0.351-0.195,0.393
			c0.044,0.177,0.578,0.453,0.685,0.686c0.053,0.114-0.021,0.487,0,0.587c0.133,0.604,0.541,1.186,0.49,1.961
			c-0.029,0.454-0.068,1.215,0.195,1.859c0.224,0.546,0.687,0.988,0.785,1.471c0.247,1.224-0.29,2.223-0.588,3.232
			c-0.095,0.317,0.147,0.943,0.391,1.273c0.029,0.04,0.735,0.955,1.077,0.49c0.112-0.15-0.335-0.85-0.097-0.98
			c0.356-0.193,0.967,0.741,1.272,0.686c0.809-0.145,0.494-2.463,1.372-2.742c0.873-0.276,1.165,0.404,1.077,1.077
			c-0.117,0.911-0.015,0.63,0.295,1.372c0.197,0.474-0.082,1.051,0,1.568c0.091,0.571,0.733,1.656,1.272,1.957
			c0.129,0.072,0.463-0.014,0.588,0.1c1.041,0.936,0.014,1.698,0.588,2.743c0.587,1.066,2.669,1.859,1.861-0.393
			c-0.199-0.556-0.648-1.104-0.489-2.155c0.2-1.326,1.065-2.288,1.959-2.939c0.567-0.414,1.1-0.713,1.272-1.764
			c0.062-0.372-0.372-1.053,0.295-1.468c-0.408,0.511,0.098,0.012,0.294,0.099c0.028,0.012,0.248,0.68,0.294,0.685
			C33.318-23.859,33.771-24.501,34.159-25.066z M12.509-16.052C12.509-15.665,12.509-16.439,12.509-16.052L12.509-16.052z
			 M5.651,18.528c0.022,0.18,0.717,0.355,0.49,0.197c0.31,0.218,0.357,0.872,0.685,0.979c0.212,0.067,2.011-0.495,2.059-0.588
			c0.404-0.798-1.865-1.668-2.548-1.371C6.166,17.818,5.651,18.529,5.651,18.528z"/>
	</g>
</g>
<g id="Layer_3" display="none">
	<g display="inline">
		<path fill-rule="evenodd" clip-rule="evenodd" fill="#E75249" d="M19.058,0.611C19.566-0.179,19.66,1.334,19.058,0.611
			L19.058,0.611z"/>
		<path fill-rule="evenodd" clip-rule="evenodd" fill="#E75249" d="M25.922,0.611c0.266-0.266,0.528,0.194,0.361,0.361
			S25.57,0.963,25.922,0.611z"/>
		<path fill-rule="evenodd" clip-rule="evenodd" fill="#E75249" d="M16.77,1.093c0.441-0.441,1.857,0.281,1.687,0.603
			C18.233,2.111,16.485,1.377,16.77,1.093z"/>
		<path fill-rule="evenodd" clip-rule="evenodd" fill="#E75249" d="M24.235,1.093c0.141-0.19,0.581,0.095,0.481,0.361
			C24.528,1.967,23.885,1.565,24.235,1.093z"/>
		<path fill-rule="evenodd" clip-rule="evenodd" fill="#E75249" d="M30.376,1.093c-0.024,0.016,0.368-0.214,0.483,0.12
			C31.129,1.992,29.599,1.554,30.376,1.093z"/>
		<path fill-rule="evenodd" clip-rule="evenodd" fill="#E75249" d="M50.248,1.334c0.328-0.328,0.742,0.075,0.602,0.361
			C50.763,1.871,49.81,1.771,50.248,1.334z"/>
		<path fill-rule="evenodd" clip-rule="evenodd" fill="#E75249" d="M27.247,2.298c-0.227,0.067,0.904-0.013,0.48,0.601
			C27.382,3.401,26.345,2.567,27.247,2.298z"/>
		<path fill-rule="evenodd" clip-rule="evenodd" fill="#E75249" d="M18.094,3.501c0.08-0.118,0.366,0.008,0.362,0
			C18.825,4.16,17.76,3.996,18.094,3.501z"/>
		<path fill-rule="evenodd" clip-rule="evenodd" fill="#E75249" d="M22.55,4.465c-1.369,0.095-3.487-0.846-1.324-0.481
			C21.759,4.073,22.593,3.842,22.55,4.465z"/>
		<path fill-rule="evenodd" clip-rule="evenodd" fill="#E75249" d="M32.906,4.706c-0.738-1.066,1.204-0.745,0.241,0.12
			C33.454,4.55,32.603,3.662,32.906,4.706z"/>
		<path fill-rule="evenodd" clip-rule="evenodd" fill="#E75249" d="M15.686,6.03c-0.712-0.178-0.805-1.39-0.121-1.687
			C17.007,3.72,17.479,6.479,15.686,6.03z"/>
		<path fill-rule="evenodd" clip-rule="evenodd" fill="#E75249" d="M40.733,5.067c0.605-0.259,1.844,1.287,1.205,1.926
			C41.452,7.48,39.265,5.696,40.733,5.067z"/>
		<path fill-rule="evenodd" clip-rule="evenodd" fill="#E75249" d="M22.188,5.669c0.09-0.197,0.531-0.188,0.603,0
			C22.972,6.143,21.948,6.194,22.188,5.669z"/>
		<path fill-rule="evenodd" clip-rule="evenodd" fill="#E75249" d="M7.858,6.03c-0.304-0.303,0.693-0.332,0.361,0
			C8.208,6.043,7.871,6.043,7.858,6.03z"/>
		<path fill-rule="evenodd" clip-rule="evenodd" fill="#E75249" d="M5.209,6.752C4.481,6.773,5.229,6.025,5.209,6.752L5.209,6.752z"
			/>
		<path fill-rule="evenodd" clip-rule="evenodd" fill="#E75249" d="M44.587,6.873c0.204-0.185,0.467-0.224,0.603,0
			C45.645,7.62,43.878,7.515,44.587,6.873z"/>
		<path fill-rule="evenodd" clip-rule="evenodd" fill="#E75249" d="M33.389,11.088C32.858,11.679,32.79,10.715,33.389,11.088
			L33.389,11.088z"/>
		<path fill-rule="evenodd" clip-rule="evenodd" fill="#E75249" d="M23.514,11.45c0.885-0.015,1.827,0.159,1.926,1.444
			c0.051,0.666-0.63,2.666-0.843,2.769c-0.03,0.016-1.831-0.285-2.047-0.481c-0.578-0.521-0.846-3.267-0.482-3.611
			C22.342,11.311,23.102,11.455,23.514,11.45z"/>
		<path fill-rule="evenodd" clip-rule="evenodd" fill="#E75249" d="M42.059,11.45C43.755,11.135,42.436,12.456,42.059,11.45
			L42.059,11.45z"/>
		<path fill-rule="evenodd" clip-rule="evenodd" fill="#E75249" d="M22.31,15.424c0.179,0.062,0.303,0.178,0.481,0.239
			C22.753,15.919,22.22,15.69,22.31,15.424z"/>
		<path fill-rule="evenodd" clip-rule="evenodd" fill="#E75249" d="M19.54,16.146c0.001-0.019-0.013-0.108,0-0.121
			C20.154,15.41,19.452,17.097,19.54,16.146z"/>
		<path fill-rule="evenodd" clip-rule="evenodd" fill="#E75249" d="M21.466,17.229C22.273,17.18,21.498,17.954,21.466,17.229
			L21.466,17.229z"/>
		<path fill-rule="evenodd" clip-rule="evenodd" fill="#E75249" d="M33.991,17.351c0.613-0.615,0.958,0.507,0.602,0.722
			C34.224,18.294,33.582,17.758,33.991,17.351z"/>
		<path fill-rule="evenodd" clip-rule="evenodd" fill="#E75249" d="M21.948,17.711c0.105-0.354,1.094-0.01,0.721,0.361
			C22.481,18.261,21.921,17.801,21.948,17.711z"/>
		<path fill-rule="evenodd" clip-rule="evenodd" fill="#E75249" d="M19.66,17.952c-0.045,0.431-0.323,0.441-0.12,0.843
			C18.922,18.846,19.161,17.838,19.66,17.952z"/>
		<path fill-rule="evenodd" clip-rule="evenodd" fill="#E75249" d="M32.184,18.072c0.025-0.024,0.653-0.023,0.482,0.361
			C32.564,18.662,31.803,18.453,32.184,18.072z"/>
		<path fill-rule="evenodd" clip-rule="evenodd" fill="#E75249" d="M20.021,18.193C20.139,17.605,19.873,18.931,20.021,18.193
			L20.021,18.193z"/>
		<path fill-rule="evenodd" clip-rule="evenodd" fill="#E75249" d="M17.371,18.314c0.065-0.259,1.063,0.261,0.723,0.602
			C17.779,19.23,17.477,17.893,17.371,18.314z"/>
		<path fill-rule="evenodd" clip-rule="evenodd" fill="#E75249" d="M21.827,18.434c0.038-0.36,0.484,0.24,0.361,0.361
			C22.091,18.893,21.81,18.601,21.827,18.434z"/>
		<path fill-rule="evenodd" clip-rule="evenodd" fill="#E75249" d="M17.011,18.555c-0.06-0.294,0.482,0.129,0.481,0.12
			C17.522,18.827,17.054,18.772,17.011,18.555z"/>
		<path fill-rule="evenodd" clip-rule="evenodd" fill="#E75249" d="M12.916,19.036c0.051-0.359,0.497,0.104,0.362,0.241
			C13.1,19.454,12.898,19.156,12.916,19.036z"/>
		<path fill-rule="evenodd" clip-rule="evenodd" fill="#E75249" d="M19.901,19.036c0.396-0.397,0.099,0.671-0.121,0.361
			C19.663,19.232,19.864,19.073,19.901,19.036z"/>
		<path fill-rule="evenodd" clip-rule="evenodd" fill="#E75249" d="M18.214,19.036c0.284,0.279,0.73,0.395,0.724,0.964
			C18.521,19.854,18.286,19.527,18.214,19.036z"/>
		<path fill-rule="evenodd" clip-rule="evenodd" fill="#E75249" d="M38.565,19.397c0.359-0.162,1.152,0.493,0.723,1.083
			C38.829,21.112,37.47,19.895,38.565,19.397z M38.927,20.361c0.199-0.096,0.104-0.76-0.241-0.603
			C38.196,19.982,38.701,20.468,38.927,20.361z"/>
		<path fill-rule="evenodd" clip-rule="evenodd" fill="#E75249" d="M-11.891-11.311c-0.554,0.617,0.104,1.204-0.844,1.204
			c-0.025,0-0.358-0.008-0.361,0c-0.25,1.236,4.737,1.183,1.927-0.12c-0.162-0.402,0.366-0.264,0.482-0.602
			c0.038-0.113-0.116-0.714,0-0.844c0.543-0.615,1.056-0.085,1.686-0.24c0.285-0.072,0.527-0.657,0.842-0.482
			c0.372,0.205,0.271,1.129-0.36,1.205c0.633-0.288,0.892,0.838,1.444,0.842c1.067,0.009,2.001-2.96,3.494-2.527
			c0.308,0.088,0.332,0.76,0.602,0.842c0.132,0.04,0.461-0.332,0.723-0.361c0.212-0.023,0.67,0.387,1.203,0.361
			c0.463-0.022,0.886-0.375,1.325-0.361c1.293,0.041,3.231,0.883,2.77,2.047c-0.078,0.197-1.295,0.217-1.324,0.844
			C1.708-9.343,2.206-9.119,2.078-8.902C1.511-7.944-0.195-8.255-0.21-9.625c0.52,1.785-2.946,0.349-2.168-0.602
			c0.505-0.617-0.108,0.007-0.963-0.241c-0.448-0.129-0.195-0.63-0.723-0.481c-0.292,0.083-0.47,1.062-0.843,1.203
			c-0.396,0.15-0.603-0.367-0.844-0.36c-0.845,0.021-0.19,0.401-0.723,1.084c-0.27,0.347-0.229-0.127-0.603,0.24
			C-7.198-8.66-7.27-8.203-7.315-8.181C-7.566-8.045-8.897-8.316-9.121-8.06c-0.934,1.073,1.103,2.001,1.323,2.288
			c0.03,0.038,0.184,1.059,0.241,1.084C-7.745-4.77-6.146-5.101-6.111-5.651c0.032-0.491-1.837-0.925-1.565-1.807
			c0.155-0.5,2.627-1.224,2.288-1.203c0.612-0.036,1.126,0.944,0.482,1.806c0.048-0.064-1.045,0.981,0.12,0.241
			c0.698-0.444-0.467-0.268,0.361-0.602c1.381-0.559,2.492,0.093,3.733,0c0.39-0.029,1.308-0.629,1.324-0.122
			c0.016,0.515-0.142,0.85,0,1.085C0.99-5.657,2.263-5.889,2.438-5.53c0.194,0.39-0.265,1.494-0.601,1.686
			c-0.172,0.1-0.462-0.09-0.362-0.24c-0.457,0.68,0.039,0.288-0.12,1.084C1.307-2.755,0.59-1.788,0.633-1.557
			c0.134,0.729,1.189,0.521,1.324,0.723c-0.183-0.273-0.035,1.613,0.361,0.24c0.093-0.321-0.666-1.476-0.602-2.287
			c0.026-0.346,0.25-1.306,0.481-1.565C2.434-4.711,2.867-4.52,3.041-4.808C3.121-4.941,2.708-5.14,2.8-5.41
			c0.08-0.232,0.568-0.125,0.723-0.481c0.131-0.301-0.077-0.626,0-0.723c0.674-0.842,2.32-1.214,3.131-1.084
			C7.096-7.627,7.926-6.756,8.34-6.855c0.378-0.09,0.229-1.925,1.686-1.325c0.774,0.32-0.053,1.347,1.325,1.205
			c-0.042,0.005,1.13-0.296,0.724-0.844c-0.203-0.271-0.413,0.624-0.242,0.481c-0.295,0.245-0.428,0.014-0.723,0
			c0.813,0.036-0.599-0.511-0.602-0.481c0.075-0.655,2.706-0.461,1.926,0.844c-0.269,0.451-0.991,0.06-1.443,0.24
			C10.587-6.574,8.925-5.49,8.821-5.29c-0.209,0.404,0.27,1.362,0.121,1.928C9.017-3.649,8.295-2.231,8.34-2.279
			C8.264-2.198,7.385-1.955,7.376-1.918C7.293-1.535,7.895-1.166,8.34-0.834c-1.162-1.336,3.096-2.13,3.613-1.807
			c0.257,0.16,0.226,0.838,0.48,1.204c0.441,0.631,3.218,1.69,3.131,2.288c-0.117,0.815-1.253,0.559-1.083,0.482
			c-1.15,0.519-1.271,1.725-2.288,2.409c-0.189,0.127-0.693-0.053-0.843,0c-0.254,0.088-0.953,1.158-0.964,1.203
			c-0.074,0.325,0.313,0.429,0.121,0.603C9.498,6.453,7.984,5.707,8.34,4.224c0.06-0.248,0.461-0.489,0.481-0.723
			C8.865,3.008,8.306,2.179,8.34,1.454C8.363,0.937,8.608,0.663,8.58,0.49C8.566,0.404,8.069-0.467,8.22-0.353
			C7.829-0.65,7.085-0.186,6.774-0.834C6.291-1.841,6.4,0.057,7.136,0.25c-1.557-0.1,0.19,1.863,0.963,2.287
			c0.334,0.522-0.591-0.008-0.602,0C6.688,3.2,8.601,4.588,6.896,5.188C6.409,5.357,4.566,6.266,4.606,6.15
			C4.358,6.852,5.801,7.98,5.449,6.512c0.694-0.047,0.76,1.447,0.964,0.361C6.898,4.3,9.554,7.393,8.099,8.197
			c-0.032,0.019-0.48-0.013-0.48,0C7.619,8.451,8.288,8.858,8.46,8.8c0.282-0.095-0.176-0.178-0.12-0.482
			c0.22-1.19,2.616-0.884,4.455-1.324c0.715-0.17,2.702-1.275,3.252-0.723c0.777,0.782,0.85,1.729,1.445,2.65
			c0.6,0.927,0.98,0.387,1.084,1.445c0.094,0.966,1.141,3.112,1.807,3.611c0.437,0.329,1.424,0.065,1.565,0.964
			c-0.032-0.204-0.982,1.495-0.241,1.083c-0.663,0.369-2.413-1.995-3.251-0.723c0.05-0.077,0.104,1.17-0.121,1.326
			c-0.403,0.279-0.883-0.302-1.204-0.241c-0.138,0.026-0.356,0.599-0.603,0.723c-0.647,0.326-1.092-0.438-1.445,0
			c-0.092,0.114,0.196,1.365,0.723,1.445c-0.019-0.003,0.687-0.76,0.964-0.603c0.762,0.432-0.182,2.777,0.963,3.372
			c-1.19-0.623-0.536,0.706,0.242,0.36c-0.778,1.041-1.144-0.183-1.566-0.481c-0.391-0.275-0.997-0.165-1.445-0.723
			c-0.093-0.116-0.104-0.462-0.24-0.722c-0.212-0.404-0.802-0.645-0.964-0.964c-0.135-0.267,0.048-0.747-0.12-1.084
			c-0.149-0.298-0.97-1.561-1.564-0.963c-0.044,0.044,0.359,1.947,0.359,1.927c-0.043,0.618-0.209,1.379-0.963,1.325
			c-0.417-0.03-2.185-0.852-2.77-1.325c0.061,0.049-0.68-1.111-0.843-1.083c-0.333,0.056-0.103,0.653-0.121,0.723
			c-0.085,0.324-1.001,1.995-1.564,2.166c-0.262,0.081-0.691-0.19-0.844-0.119c-0.365,0.169-0.531,0.85-0.843,0.842
			c-0.545-0.014-0.093-0.729-0.482-0.481C3.36,21.13,4.025,21.51,3.522,22.408c-0.219,0.392-1.444,0.734-1.444,1.686
			c0,0.533,0.68,0.776,0.843,1.445c0.108,0.44-0.299,1.343-0.241,2.168c0.049,0.664,0.474,1.166,0.482,1.443
			c0.015,0.529-0.623,1.457,0.481,1.326c0.104-0.013,0.302-0.668,0.241-0.603c0.119-0.128,0.647-0.194,0.963-0.603
			c0.296-0.382,0.328-1.265,0.843-1.564c0.207-0.121,0.403,0.093,0.844,0c0.711-0.151,1.558-1.298,2.167-1.325
			c0.204-0.009,1.46,0.37,1.445,0.361c0.072,0.045-0.058,0.41,0,0.481c0.527,0.649,1.905,0.916,1.807,1.807
			c-0.043,0.383,0.46,0.746,0,1.564c-0.097,0.171-0.578,0.259-0.603,0.362c-0.23,0.973,0.172,1.078,0.603,2.408
			c-1.031-1.127-1.028,0.042-1.445,0.964c0.04-0.254-1.353-0.718-1.565-0.603c-0.583,0.315-0.144,0.995-0.241,1.085
			c-0.401,0.359-1.55-0.211-1.446,0.602c-0.01-0.09,0.916,0.185,1.085,0.481c0.081,0.139,0.198,2.579,0.361,2.408
			c-0.046,0.047-1.55-0.413-1.446-0.964c0.693-0.088,0.35,0.583,0.844,0.481c1.018-0.206-1.451-2.429-0.844-0.602
			c-0.649-0.054-0.813-1.631-1.203-1.686c-0.029-0.005-0.251,0.476-0.24,0.481c-0.238-0.129-0.453-0.829-0.964-1.083
			c-0.093-0.048-0.453,0.251-0.602,0.241c-0.628-0.045-0.765-0.685-1.205-0.603c-0.555,0.101-0.277,0.49-0.604,0.843
			c-0.156,0.17-0.468,0.025-0.601,0.12c-0.574,0.412-0.088,0.942-0.362,1.444c0.15-0.274-0.595,0.275-0.601,0.241
			c0.115,0.676,1.161-0.851,1.926-0.241c0.79,0.63-0.338,2.045,0.603,2.288c-0.046,0.25-0.636-0.206-0.603-0.24
			c-1.027,1.095,3.491,2.033,1.807,3.492c0.39-0.711-0.762-0.614-0.842-0.24c-0.066,0.293,0.798,0.837,0.722,1.083
			c0.042-0.136-0.769,0.391-0.722,0.482c0.137-1.438-1.315-0.551-1.205-2.529c0.072-1.275,0.289-0.91-0.241,0.12
			c-0.176,0.344-0.431-0.018-0.481,0.241c-0.106,0.547,0.149,1.899,0.241,2.168c0.511,1.503,2.143,1.395,1.687,3.372
			c-0.002,0.007-0.98-0.076-0.482,0.843c0.129,0.237,1.08,1.426,1.324,1.564c0.405,0.23,0.948-0.055,1.325,0.24
			c0.474,0.371,0.259,1.066,0.481,1.688c0.232,0.648,1.63,2.287,1.807,3.01c0.238,0.979-0.222,0.361,0.602,0.963
			c0.597,0.436,1.311,2.303,0.963,3.012c-0.107,0.221-1.818,0.279-2.047,0.48c-0.157,0.139,0.049,1.324-0.361,1.205
			c-0.259-0.436,0.362-1.914-0.121-2.289c0.013,0.01-0.492-0.18-0.48-0.119c-0.113-0.574,0.516-2.316,0.844-2.41
			c0.808-0.229-0.87-0.105-0.844-0.119c-0.672,0.346-0.804,2.074-1.565,2.891c-0.492,0.527-0.756,0.166-0.963,0.602
			c0.033-0.07,0.126,0.691-0.121,0.842c-1.81,1.113-1.637-3.223-2.408-3.371c-0.243-0.047-1.401,0.541-1.566,0.723
			c-0.513,0.574-0.258,1.438-1.323,1.807c-0.857,0.297,3.688,2.311,0.963,3.01c-0.632,0.162-1.535-0.723-2.168-0.48
			c0.129-0.049-0.565,0.654-0.602,0.723c-0.436,0.821-0.45,2.933-1.687,2.892c-0.08-0.004-0.854-0.639-0.964-0.604
			c-0.661,0.221-0.756,2.73-0.481,3.613c0.1,0.32,0.485,0.553,0.603,0.842c0.655,1.613,0.629,3.473,0.964,4.697
			c0.812,2.977,2.108,5.922,2.167,9.273c0.015,0.781-0.007,1.42-0.481,1.926c0.169-0.109,0.966,0.123,0.723,0.602
			c-0.544,0.084-0.276-0.201-0.241-0.48c-0.725-0.094,0.084,0.646-0.481,0.602c-0.47-1.539-1.467-2.92-2.168-4.816
			c-0.468-1.268-1.645-2.52-1.927-3.854c-0.168-0.799,0.375-1.395,0.361-2.168c-0.014-0.82-0.866-2.838-1.445-2.891
			c-0.308-0.027-0.759,0.514-0.963,0.482c-1.351-0.203-0.166-1.727-1.324-2.65c-0.33-0.262-1.452-0.611-2.048-0.361
			c-0.911,0.383-0.987,3.309-1.445,4.336c-0.321,0.723-1.154,0.887-0.964,1.686c0.1,0.416,0.191-0.189,0.724,0.242
			c1.173,0.951-0.348,3.768-1.084,1.686c-0.062-0.172,0.303-1.512,0.12-1.686c-0.354-0.34-1.287,1.225-1.084,1.445
			c-0.828-0.275-2.461-1.971-2.77-3.613c-0.139-0.74,0.412-1.645-0.48-1.928c-0.642-0.203-2.283,0.361-2.771,0.965
			c-0.736,0.91-0.87,3.736-1.445,5.9c-0.304,1.145-0.871,2.348-1.204,3.492c-0.316,1.094-0.171,2.557-0.36,3.492
			c-0.275,1.35-0.761,2.432-0.964,4.094c-0.279,2.293-1.471,5.188-2.288,6.986c-0.495,1.09-0.852,1.055-0.963,2.768
			c-0.076,1.178-0.559,2.809-0.482,3.734c0.042,0.492,0.608,1.092,0.723,1.686c0.151,0.783-0.216,1.783,0,2.047
			c0.195,0.238,0.471-0.494,0.844-0.242c0.729,0.498-0.676,3.885-0.724,4.338c-0.046,0.451,0.001,1.215-0.12,1.324
			c-0.583,0.523-0.316-0.209-0.24-0.482c0.367-1.307,0.397-3.57,0.24-4.334c-0.683,3.25-0.821,7.338-1.807,10.717
			c-0.35,1.203-0.992,2.186-1.203,3.371c-0.611,3.438-0.724,6.58-0.963,9.756c-0.104,1.35-0.528,2.76-0.603,4.213
			c-0.136,2.625-0.885,4.949-0.964,7.828c-0.018,0.619,0.165,1.219,0.12,1.807c-0.066,0.885-0.622,1.621-0.722,2.408
			c-0.092,0.73,0.272,1.418,0.241,2.168c-0.073,1.703-0.81,3.756-0.844,5.781c-0.02,1.205-0.674,2.83-0.723,3.854
			c-0.047,0.979-0.152,3.969-0.241,3.854c0.211,0.275,1.144-0.104,0.964-0.121c1.343,0.137,1.509,3.119-0.121,3.492
			c-0.145,0.033-0.769-0.193-0.843-0.121c-0.241,0.236-0.072,1.059-0.121,1.566c-0.163,1.762-0.502,4.734-0.722,6.021
			c-0.758,4.441-2.096,10.184-2.167,15.293c-0.026,1.818-0.48,5.119-0.844,7.105c-0.736,4.045-1.647,9.242-2.288,13.729
			c-0.134,0.941-0.381,2.811-0.723,3.01c-0.863,0.502-0.927-0.459-0.723-1.566c0.413-2.232,1.345-5.768,1.566-7.826
			c0.535-4.971,1.434-9.77,1.686-14.211c0.185-3.266,1.87-7.609,1.565-11.439c-0.049-0.613,0.048-1.447,0.121-2.047
			c0.354-2.951,0.158-6.691,0.48-8.309c0.1-0.49,0.67-0.916,0.604-1.566c0.047,0.449-1.126-1.596-0.242-1.686
			c0.364-0.037,0.213,0.113,0.242,0.602c0.672-4.352,1.539-10.875,2.167-15.654c0.231-1.758-0.331-2.623,0-4.818
			c0.438-2.912,1.423-7.518,1.807-10.115c0.085-0.57-0.129-1.121,0.12-1.324c0.489-0.396,0.469,0.309,0.603-0.723
			c0.03-0.23,0.419-1.732-0.12-1.445c-0.476,0.252-0.009,1.664-0.482,2.168c-0.361-1.105,0.233-2.137,0.241-3.252
			c0.012-1.801,0.237-3.76,0.48-5.418c0.139-0.945-0.316-1.996-0.239-3.012c0.221-2.932,1.103-7.033,1.204-10.596
			c0.022-0.838-0.384-4.232-0.361-4.215c-0.767-0.562-0.358,1.959-0.964,2.408c-0.201,0.148-0.655-0.145-0.723,0
			c-0.178,0.383,0.531,2.262-0.24,2.408c-0.913,0.172-0.143-1.73-0.12-2.289c0.063-1.646-0.895-4.131,0.12-4.576
			c-0.252,0.111,1.972,0.746,1.807,0.844c0.526-0.307-0.581-2.246-0.121-3.01c0.18-0.301,0.367,0.031,0.482-0.242
			c0.489-1.168,0.654-2.266,0.842-3.492c0.258-1.68,0.923-3.266,0.963-5.299c0.034-1.668,0.265-4.064,1.204-4.695
			c0.52-0.35,0.705-0.027,0.844-0.24c0.656-1.016-0.146-3.365-0.121-4.578c0.046-2.082,0.545-4.572,0.481-6.262
			c-0.032-0.883,0.42-2.99-1.204-2.289c-0.181,0.08-1.124,2.674-1.204,3.012c-0.243,1.047,0.375,1.061,0,1.566
			c-0.251,0.34-1.729,0.6-2.046,0.119c-0.265-0.398,0.726-1.533,0-2.047c-0.306-0.215-1.104,1.021-0.843,0.723
			c-0.853,0.969-0.61,1.312-1.324,2.77c-0.262,0.531-1.921,2.152-0.482,1.807c0.665-0.16,0.581-1.521,1.083-1.926
			c0.179-0.115-0.229,1.209,0,1.324c0.926,0.463,0.163-1.096,0.844-1.324c1.44-0.488,0.562,3.85-0.12,3.732
			c-0.304-0.053-0.084-3.088-0.724-1.084c-0.042,0.131,0.075,0.602,0,0.963c-0.366,1.764-2.481,2.213-1.565,4.096
			c-0.287-1.275-1.355-0.645-0.844,0c-0.155-0.197,0.465,0.258,0.483,0c-0.028,0.398-0.507,1.008-0.724,0.721
			c-0.633-0.834,0.572-2.963-0.361-3.129c-0.541-0.098-1.588,1.762-1.565,2.287c0.011,0.244,0.649,0.938,0.724,1.324
			c0.291,1.566-0.713,6.383-1.205,6.744c-0.195,0.143-0.766-0.004-0.962,0.121c-0.356,0.219-1.25,2.264-1.447,2.889
			c-0.235,0.752-0.119,1.668-0.361,2.289c-0.392,1.012-0.695,2.043-0.963,3.25c-0.315,1.43-0.396,2.42-0.963,3.975
			c-0.304,0.834-0.328,1.93-0.481,2.049c-0.994,0.764-2.388-1.084-2.409-1.205c-0.169-0.988,0.856-1.662,1.083-2.408
			c0.42-1.371,0.535-2.012,0.844-3.975c0.075-0.473,0.361-0.881,0.361-1.084c0.005-0.584-0.438-0.158,0.121-0.361
			c0.71-0.258,0.797-2.988,0.963-3.854c0.217-1.127-0.074-2.246,0-3.371c0.026-0.383,0.345-0.713,0.36-1.084
			c0.061-1.342-0.454-2.85-0.119-4.096c0.214-0.799,0.754-1.268,0.723-1.926c-0.015-0.316-0.407-0.539-0.482-0.963
			c-0.09-0.512,0.269-1.105,0.24-1.324c-0.049-0.404-0.454-0.535-0.602-0.965c-0.097-0.287-0.481-2.525-0.481-2.648
			c-0.002-0.594,0.643-1.162,0.603-1.566c-0.019-0.178-0.628-0.662-0.603-0.842c0.079-0.539,1.132-1.062,1.204-1.324
			c0.392-1.422-0.405-3.52-1.445-4.096c-0.898-0.5-1.572-0.318-2.046-1.445c-0.298-0.703,0.016-1.434-0.361-1.805
			c-0.267-0.264-1.265,0.135-1.566-0.242c0.027,0.033,0.107-1.74,0.361-2.289c0.01-0.02,1.282-1.08,0.241-1.084
			c-0.479,0-0.509,0.484-0.843,0.604c-0.175,0.062-1.914,0.021-2.289,0.361c-0.297,0.27-0.776,1.826-0.722,2.168
			c0.109,0.693,0.954,0.537,1.084,1.686c0.22,1.965-0.916,3.904-1.928,4.816c-0.906,0.818-2.415,1.137-3.13,2.047
			c-0.443,0.564-0.24,2.1-1.205,1.688c-0.117-0.48,0.673-0.051,0.603-0.482c-0.253-0.344-0.562,0.004-0.603,0
			c-1.722-0.154-0.021-1.674-0.12-2.047c-0.257-0.977-0.906,0.381-1.324,0c-0.277-0.252,0.099-3.07,0.843-3.133
			c0.094-0.008,0.574,0.492,0.602,0.482c0.466-0.178,1.123-1.227,1.084-1.564c-0.051-0.451-0.928-0.568-0.963-0.723
			c-0.087-0.365,1.664-1.908,1.806-2.648c0.139-0.727-0.3-1.178-0.12-1.928c0.182-0.762,1.092-2.422,1.687-2.891
			c0.162-0.127,1.159-0.336,1.204-0.48c0.129-0.424-0.685-0.646-0.723-0.844c-0.118-0.6,0.911-1.094,0.963-2.169
			c0.021-0.447-0.363-1.635-0.603-1.686c0.212,0.045-0.783,0.66-0.842,0.602c-0.218-0.213-0.075-1.514,0.602-1.445
			c0.371,0.037,0.283,0.467,0.24,0.482c0.992-0.396,0.661-1.463,1.084-1.926c0.192-0.211,0.465,0.244,0.481,0.24
			c-0.059,0.018,1.686-1.955,1.928-2.289c0.691-0.949,1.379-3.189,1.325-4.455c-0.012-0.266-0.376-1.264-0.482-1.324
			c-0.759-0.443-0.706,0.592-1.084-0.482c-0.107-0.305-0.777-0.322-0.844-0.482c-0.024-0.057-0.061-1.188,0-1.564
			c0.136-0.825,0.815-1.742,1.565-1.565c-0.086-0.02,0.421,0.497,0.482,0.482c0.803-0.2,2.712-3.096,0.121-2.771
			c-0.553,0.069-0.955,1.257-1.807,1.445c-0.536,0.118-0.556-0.279-0.843-0.121c-0.95,0.526-0.532,1.573-1.565,1.687
			c-0.609,0.065-0.897-0.867-1.566-0.481c-0.672,0.387-0.254,1.816-0.24,1.565c-0.059,1.114-1.906,2.981-2.048,1.204
			c-0.087-1.096-1.402-2.505,0.121-3.372c0.36-0.206,0.788,0.075,1.084,0c1.666-0.423,1.283-1.628,2.047-3.732
			c-1.12,1.45-1.441-0.516-0.722-0.844c0.761-0.348,1.172,0.521,0.962,0.603c0.532-0.205,0.105-1.261,0.362-1.687
			c0.09-0.151,0.998-0.512,1.083-0.481c0.096,0.034,0.231,0.879,0.362,0.964c0.411,0.266,0.937-0.192,1.084-0.12
			c0.323,0.159,0.177,0.843,0.602,0.722c0.796-0.227,0.213-1.414,0.48-1.927c0.537-1.018,1.485-0.538,1.688-1.687
			c0.039-0.228-0.182-1.62-0.241-1.685c-0.086-0.092-2.425,0.171-2.168,0.12c-0.212,0.042-0.203-0.127-0.36-0.12
			c-0.492,0.017-1.455,1.113-1.928,1.203c-1.417,0.27-1.062-0.375-1.084,0.844c-0.018,0.984-0.599,0.481-1.203,0.481
			c-0.461-0.001-1.844,0.569-3.012,0.24c-0.51-0.143-0.691-0.631-0.963-0.602c-0.815,0.087-1.527,2.004-2.289,2.047
			c0.366-0.02-1.284-1.046-1.443-0.843c0.52-0.399,0.434-0.273,0.602-1.084c0.158-0.768,0.791-0.732,1.444-1.325
			c0.421-0.381,0.735-1.254,0.723-1.564c-0.011-0.273-0.312-1.255-0.48-1.324c-0.5-0.21-2.523,1.001-2.169-0.241
			c0.052-0.179,1.716-0.717,1.927-0.964c0.255-0.297-0.128-0.63,0-0.843c0.165-0.275,1.435-1.037,0.242-1.566
			c-0.843-0.372-2.02,1.63-2.892,0.723c-0.113-0.118-0.455-1.276-0.842-0.48c-0.121,0.246,0.439,0.672,0.48,0.842
			c0.153,0.635-0.162,1.873-0.722,2.289c-0.387,0.287-1.806,0.515-2.409,0.241c-0.347-0.158-0.645-1.423-1.324-0.482
			c0.86-2.326,3.229-2.769,3.492-5.058c0.251-2.184,1.447-4.007,3.613-4.336c0.576-0.087,1.069,0.258,1.806,0.241
			c0.425-0.01,0.403-0.318,0.603-0.361c0.839-0.182,1.859,0.542,1.927,0.723c-0.616-1.659,0.243,0.914,0,0.843
			c0.048,0.015,1.587-2.597,1.565-2.89c-0.021-0.273-0.344-0.923-1.084-1.084c0.137,0.029-0.607,0.796-0.964,0.24
			c-0.67-1.049,0.837-1.294,1.325-1.685c0.281-0.227,2.518-0.868,1.205-0.964c-0.304-0.285,0.778-0.49,0.842-0.723
			c0.125-0.451-1.029-1.329-0.361-1.927c0.105-0.094,0.834-0.15,0.844-0.241c0.096-0.833-1.266-0.817-1.686-0.722
			c0.386-0.031,0.682-0.972,0.963-1.205c0.141-0.115,0.691-0.129,0.723-0.241c0.125-0.46-0.793-1.056-0.603-1.444
			c0.104-0.214,0.686-0.188,0.723-0.361c0.099-0.459-0.359-0.144-0.362-0.843c0-0.146,0.359-0.606,0.362-0.603
			c-0.565-0.905-2.343-0.351-2.407,0.12c-0.065,0.462,1.376,1.114,1.443,1.565c0,0-0.328,1.509-0.48,1.807
			c-0.067,0.13-0.566,0.254-0.724,0.48c-0.35,0.505-0.139,0.855-0.239,0.964c-0.06,0.063-0.579-0.069-0.604,0
			c-0.218,0.63,0.226,1.415,0.12,2.169c-0.092,0.662-0.682,1.94-1.203,2.408c-0.65,0.581-2.415,1.239-2.891,0.723
			c-0.376-0.408,0.438-0.372,0.482-0.723c0.048-0.403-0.419-0.227-0.482-0.481c-0.133-0.537,0.853-3.766-0.362-1.445
			c-0.514,0.985-0.328,0.874-1.324,0.843c-0.092-0.003-0.539,0.335-0.602,0.241c-0.592-0.879,1.19-1.818,1.203-2.649
			c0.011-0.562-0.861-1.041-0.963-1.686c-0.036-0.229-0.586-0.343-0.602-0.482c-0.055-0.479,0.436-1.867,0.842-2.288
			c0.166-0.171,0.694-0.236,0.843-0.481c0.153-0.25-0.039-0.764,0.122-0.964c0.308-0.382,0.872-0.103,0.964-0.603
			c0.05-0.284-0.522-0.336-0.604-0.602c-0.302-0.994,1.255-2.048-0.241-1.445c0.566-0.754-0.278-2.021,0.845-2.168
			c0.263-0.033,0.892,0.311,0.962,0.603c0.041,0.166-0.47,1.079,0.121,1.084c0.018,0,0.986-0.27,1.204-0.602
			c0.053-0.08-0.1-0.5,0.121-0.603c0.188-0.087,1.089-0.229,1.325,0.241c0.715,1.43-2.156,2-1.808,2.89
			c0.33,0.843,2.501,0.201,2.77-0.241c0.181-0.297,0.059-0.763,0.241-1.084c0.303-0.531,1.451-1.387,1.686-1.444
			c1.21-0.297,2.34,0.696,2.408,0.723c1.581,0.613,0.65-1.112,0.723-1.445c0.105-0.48,0.688-0.436,0.844-0.843
			c0.055-0.144-0.027-1.012,0-0.963c-0.11-0.2-0.563-0.106-0.964-0.362c0.092,0.059-1.626-1.487-1.565-1.083
			c-0.095-0.624,0.522-0.075,1.084-0.603c0.399-0.375,0.505-1.697,1.324-2.288c0.096-0.068,2.076-1.09,2.047-1.083
			c1.882-0.364,0.395,1.082,0.24,1.806c-0.037,0.176,0.325,0.155,0.361,0.361c0.122,0.67-1.791,2.371-0.239,2.408
			c0.256,0.006,1.217-0.656,1.444-0.843c0.67-0.545,0.313-0.734,0.603-1.204c0.079-0.129,0.603,0.146,0.723,0
			c0.124-0.15,0.147-1.319,0-1.687c0.011,0.029-0.224,0.311-0.361,0.241c-0.132-0.066-0.601-1.244-1.325-1.325
			c-0.718-0.079-0.716,0.59-0.844-0.119c-0.048-0.274-0.678-0.358-0.963-0.723c-0.26-0.334-0.135-0.814-0.36-1.084
			c-0.397-0.473-1.07-0.291-1.565-0.723c-0.105-0.091,0.027-0.42-0.12-0.481c-1.374-0.571-2.027,0.181-2.891-1.084
			c1.044-0.35,2.362,0.606,3.251,0.12c0.43-0.234,0.434-2.659,2.168-1.927c0.391,0.164,0.586,1.775,0.48,2.288
			c-0.053,0.266-0.333,0.366-0.239,0.481c0.291,0.357,1.482,0.236,1.564,0.121c-0.146,0.205-1.145-2.276-0.602-0.603
			c-0.114-0.354,0.411-0.774,0.361-1.324c-0.025-0.288-0.386-0.253-0.361-0.482c0.107-1.018,0.761-1.139,0.723-1.927
			c-0.031-0.627-0.782-0.933-0.723-1.565c0.178-1.895,3.78-1.762,5.299-1.324c-0.77,0.696-0.421,0.21,0,1.084
			c0.668,1.388,1.137-0.372,2.769-0.241c0.633,0.051,1.64,0.828,1.929,1.204c0.286,0.375,0.602,2.097,1.443,1.324
			c0.063-0.056-0.058-1.153-0.119-0.963c0.146-0.453,0.933-0.353,1.204-1.084c0.144-0.386-0.322-0.299-0.24-0.723
			c0.076-0.403,0.475,0.378,0.36-0.361c-0.023-0.153-0.512-1.183-0.602-1.324c-0.542-0.846-0.408-0.159-0.241-1.205
			c0.062-0.395-0.152-2.312,0.241-2.648c1.54-1.314,0.96,1.45,1.565,1.565c0.008,0.001,0.491-0.968,0.48-0.963
			c1.037-0.481,0.188,1.195,0,0.963c0.142,0.174,1.498,0.103,1.566-0.603c0.041-0.43-0.928-0.627-1.084-1.565
			c-0.07-0.414,0.283-0.861,0.24-0.963c0.079,0.19-0.633-0.991-0.963-0.603c-0.073,0.087,0.727,1.321,0.361,1.686
			c-0.458,0.459-1.744-1.146-1.084-1.806c1.22-1.22-1.675,1.197-2.047-0.24c-0.308-1.189,1.73-1.129,2.288-1.688
			c0.158-0.156,0.438-1.011,0.603-1.203c0.795-0.94-0.297-0.809-0.361-1.687c-0.028-0.363,1.341-2.569,2.407-1.203
			c0.118,0.15,0.11,0.816,0.241,0.842c0.353,0.068,1.921-1.862,0.12-2.047c0.086-0.374,0.954-0.303,0.844-0.843
			c-0.021-0.102-1.048-0.07-1.084-0.12c-0.5-0.69,2.245-1.836,2.408-2.168c0.528-1.075-0.55-2.783,0.723-3.131
			c0.428-0.117,1.288,0.774,1.565,0.602c0.301-0.187-1.162-1.974-0.722-2.649c0.302-0.465,1.365-0.563,1.685,0
			c0.523,0.921-0.712,1.533,0.121,2.168c0.069,0.053,0.762-0.37,0.842-0.362c0.519,0.061,0.27,0.694,0.964,1.085
			c0.182,0.102,0.198-0.347,0.241-0.361c0.339-0.109,0.401,0.523,0.603,0.481c0.375-0.077,0.604-0.672,0.843-0.602
			c0.264,0.077,0.107,0.723,0.361,0.963c0.418,0.395,0.237-0.298,0.723-0.121c0.033,0.014,0.717,1.021,1.205,0.844
			c0.479-0.175-0.017-0.844,0.481-1.204c1.104-0.798,1.209,0.706,2.046,1.084c-1.693,0.813-0.736,1.626,0.241,3.131
			c0.093,0.143-0.193,0.277-0.12,0.361c0.573,0.663,1.469,0.507,0.603,1.324c0.022-0.022-0.563,0.271-0.603,0.362
			c-0.043,0.102-0.023,1.865,0,1.926c-0.042-0.111,1.058,1.441,1.084,1.445c0.398,0.045,0.74-1.297,1.324-1.204
			c1.455,0.233-0.09,1.733,0.12,2.287c0.182,0.479,1.92,0.273,1.084,1.205c-0.328,0.367,0.439,1.229,0.965,1.687
			c0.331,0.289,0.534-0.077,0.602,0.24c0.168,0.798-1.949,1.855-2.167,2.77c-0.032,0.13,0.188,0.727,0.118,0.843
			c-0.372,0.644-1.021,0.239-1.083,0.964c-0.068,0.811,1.413,1.113,0.603,2.168C-12.014-10.872-11.805-10.942-11.891-11.311z
			 M-3.341,83.464c0.023,0.182,0.444-0.152,0.481,0.119c0.016,0.113-0.728,0.365-0.241,0.723c0.016,0.012,0.361,0,0.361,0
			C-2.451,83.081-3.403,82.97-3.341,83.464z M-26.222-18.295C-27.092-18.284-26.46-17.652-26.222-18.295L-26.222-18.295z
			 M-24.656-18.295c-0.01-0.009-1.577,0.164-1.445,0.24c0.51,0.097,0.666,1.176,1.084,0.963c-0.162-0.078-0.224-0.257-0.24-0.48
			C-24.63-16.938-24.463-18.121-24.656-18.295z M-24.415-16.609c0.232,0.326,0.857-0.3,0.361-0.361
			C-23.867-16.543-24.463-16.897-24.415-16.609z M-22.128-16.73c0.244-0.243-0.36-0.353-0.36-0.12
			C-22.488-16.789-22.24-16.617-22.128-16.73z M-9.242-10.588C-8.649-9.874-8.459-11.104-9.242-10.588L-9.242-10.588z
			 M-1.415-10.227c0.36,0.966,1.867-0.947,0.361-0.361C-1.114-10.564-1.521-10.512-1.415-10.227z M8.821-6.976
			c0.641,0.918,2.059-0.995,0.361-0.362C9.273-7.37,8.835-6.955,8.821-6.976z M-47.415-5.169c0.202,0.205,0.54-0.07,0.721-0.241
			C-47.002-5.397-47.267-5.342-47.415-5.169z M-48.62-4.688C-48.589-3.963-47.813-4.738-48.62-4.688L-48.62-4.688z M-46.813-4.085
			c0.324,0.107,0.158-0.947-0.121-0.482C-47.021-4.422-46.892-4.111-46.813-4.085z M-47.656-4.085
			c0.46,0.46,0.692-0.693,0.119-0.121C-47.546-4.196-47.745-4.174-47.656-4.085z M15.204,0.731c-0.018-0.127-0.33-0.09-0.481,0
			C14.301,0.981,15.24,0.987,15.204,0.731z M-59.097,7.595C-59.244,8.334-58.979,7.008-59.097,7.595L-59.097,7.595z M-60.663,13.256
			C-60.811,13.993-60.545,12.668-60.663,13.256L-60.663,13.256z M1.354,14.099c0.394-0.026,0.129-1.091-0.24-0.724
			C0.868,13.623,1,14.122,1.354,14.099z M21.105,14.941c-0.145-0.31-0.497,0.062-0.481,0C20.557,15.23,21.241,15.232,21.105,14.941z
			 M11.713,16.387c-0.013-0.99-1.064-0.943-1.688-1.326C10.344,15.747,11.354,15.739,11.713,16.387z M3.522,17.952
			c-0.647,1.421,2.223,1.101,0.843-0.723C4.943,18.409,3.513,17.976,3.522,17.952z M-24.295,20.361
			C-25.082,20.259-24.774,20.926-24.295,20.361L-24.295,20.361z M15.926,20.842c0.128,0.354,1.69-0.028,0.603-0.24
			C16.392,20.574,15.858,20.651,15.926,20.842z M-23.573,22.408c0.161,0.12,0.449,0.113,0.482,0.361
			c-0.376,0.334-0.519-0.387-0.842,0c0.72,0.456,2.125-0.013,2.889-0.12C-22.414,22.475-22.317,21.661-23.573,22.408z
			 M-52.715,23.491c0.012-0.114-0.333-0.313-0.602-0.12C-53.738,23.674-52.755,23.895-52.715,23.491z M-43.322,24.937
			c-0.911-1.381-0.543,1.939,0.723,1.324c-0.286,0.14-0.655-1.636-0.24-0.481C-42.978,25.398-43.136,25.219-43.322,24.937z
			 M-53.077,29.633c-0.029,0.226,0.216,0.607,0.121,0.723c-0.054,0.066-0.769-0.121-0.723,0.121c0.182,0.93,0.445,0.015,1.084,0
			c0.505-0.012,2.034,0.669,2.168,0.602c0.734-0.371-0.209-0.596,0.241-1.324c0.032-0.055,0.556,0.088,0.603-0.241
			c0.234-1.673-1.434-1.059-1.928-1.565c0.182,0.187,0.209-0.907,0.241-0.481c-0.085-1.064-1.724-0.721-2.047,0.843
			C-51.419,27.885-52.918,28.473-53.077,29.633z M-54.399,33.728c-0.017-0.434-0.38-0.235-0.362-0.24
			C-55.694,33.796-54.364,34.719-54.399,33.728z M-45.971,47.456C-44.228,46.686-45.933,45.44-45.971,47.456L-45.971,47.456z
			 M-46.813,47.456C-46.378,48.064-46.362,47.023-46.813,47.456L-46.813,47.456z M7.858,54.682
			c-0.089-0.164-0.488-0.621-0.723-0.242C7.363,54.467,7.762,54.924,7.858,54.682z M-44.526,56.367
			c-0.004-0.408-0.611-0.463-0.723-0.361C-45.724,56.438-44.519,57.201-44.526,56.367z M-8.64,58.535
			c-0.008,0.035-0.439-0.029-0.481,0c-0.449,0.309,0.179,1.533,0.12,1.686c-0.003,0.006-0.41-0.35-0.361-0.361
			c-0.207,0.051-0.165,2.225,0.361,0.723c0.162-0.463,1.034-2.846,0.963-3.131c-0.065-0.262-0.491-0.854-0.843-0.482
			C-9.159,57.262-8.517,57.959-8.64,58.535z M-1.054,60.582C-0.211,60.205-1.059,59.4-1.054,60.582L-1.054,60.582z M-47.656,64.677
			C-46.548,63.204-48.024,62.858-47.656,64.677L-47.656,64.677z M-48.38,65.761c-0.036-0.316,0.468-0.096,0.361-0.48
			C-48.323,65.188-48.583,65.739-48.38,65.761z M-47.176,69.614C-46.497,69.536-47.141,68.892-47.176,69.614L-47.176,69.614z
			 M-47.777,70.337C-47.396,69.673-48.202,69.894-47.777,70.337L-47.777,70.337z M-40.431,71.06
			c-0.016,0.625-0.551,0.061-0.242,1.205c0.242,0.896,0.655-0.529,1.445-0.604c-0.781-0.045-0.718-0.252-0.964-0.721
			C-40.218,71.032-40.292,71.079-40.431,71.06z M-39.468,72.384C-38.536,72.759-38.776,71.962-39.468,72.384L-39.468,72.384z
			 M-37.902,72.745C-37.938,72.022-38.581,72.665-37.902,72.745L-37.902,72.745z M-31.882,74.312
			c0.478,1.443,2.309-1.078,0.844-0.965C-31.335,73.37-32.052,73.796-31.882,74.312z M-35.734,75.396
			c-0.593,1.041,1.296,0.277,1.324,0.24c-0.044,0.061-0.127-0.738-0.121-0.844C-34.416,75.546-35.573,75.108-35.734,75.396z
			 M-37.902,75.757c-0.12,0.037,0.132,0.348-0.241,0.48c-0.295,0.105-0.794-0.244-0.964-0.121c-0.839,0.617-0.052,2.734,0.362,1.326
			c0.284-0.969,0.5-0.002,0.843-0.242c0.163-0.113-0.054-0.396,0.12-0.602c0.322-0.381,1.263-0.75,0.36-1.084
			C-36.935,76.423-37.928,75.765-37.902,75.757z M-40.912,77.683c0.364-0.158,0.992-2.412-0.242-1.926
			C-41.818,76.017-42.061,78.181-40.912,77.683z M-4.305,75.876c0.245-0.244-0.361-0.354-0.361-0.119
			C-4.666,75.817-4.418,75.989-4.305,75.876z M-35.977,76.237c-0.109-0.271-0.701-0.33-0.843-0.121
			C-37.296,76.829-35.634,77.077-35.977,76.237z M-36.097,77.923c-0.166-0.607-0.19-0.328-0.844-0.24
			C-38.3,77.868-35.917,78.577-36.097,77.923z M-41.756,79.368c-0.033-0.129-0.429-0.119-0.482,0
			C-42.407,79.751-41.705,79.575-41.756,79.368z M-31.882,79.61c0.243-0.244-0.361-0.354-0.361-0.121
			C-32.243,79.552-31.994,79.724-31.882,79.61z M-40.551,80.091c0.243-0.244-0.361-0.354-0.361-0.119
			C-40.912,80.032-40.665,80.204-40.551,80.091z M-36.097,81.296C-34.979,80.78-35.677,80.083-36.097,81.296L-36.097,81.296z
			 M-42.359,80.935c-0.04-0.098-0.319-0.145-0.36,0C-42.798,81.214-42.249,81.194-42.359,80.935z M-36.097,81.657
			c-0.33-0.064-0.489-1.055-0.844-0.361C-36.373,81.058-36.463,82.093-36.097,81.657z M-2.739,82.741
			c0.021-0.117-0.31-0.053-0.361,0C-3.315,82.956-2.767,82.903-2.739,82.741z M-29.955,98.155c-0.944,0.199-0.362-0.379-1.083-0.361
			C-31.082,98.288-29.978,98.833-29.955,98.155z M-33.446,127.538c-0.067,0.361-0.419,0.148-0.361,0.48
			c0.046,0.277,0.482,0.207,0.361,0.604c-0.073,0.234-0.842-0.846-0.482,0c0.699,1.646,0.476-0.793,0.482-0.844
			c0.002-0.021,0.368,0.068,0.361,0.121c0.046-0.324,0.167-2.73,0.24-2.648c-0.715-0.785-1.015,1.16-0.361,1.324
			C-34.141,126.226-33.372,127.14-33.446,127.538z M-33.326,129.464c-0.101-0.043-0.219,0.066-0.242,0.121
			C-33.879,130.306-33.212,129.517-33.326,129.464z M-34.049,133.077C-34.483,134.036-33.467,133.776-34.049,133.077
			L-34.049,133.077z M-34.169,135.124C-33.57,134.519-34.562,134.47-34.169,135.124L-34.169,135.124z M-34.41,136.208
			c0.425,0.17,0.491-0.783,0.12-0.602C-34.506,135.712-34.736,136.079-34.41,136.208z M-34.531,136.329
			C-34.367,137.263-33.797,136.694-34.531,136.329L-34.531,136.329z M-34.41,138.497c-0.066,0.014,0.522-1.068,0-0.723
			C-34.975,138.147-34.747,138.567-34.41,138.497z M-34.531,139.22c0.073-0.201-0.2-0.402-0.36-0.24
			C-35.117,139.204-34.631,139.493-34.531,139.22z M-34.771,140.304c0.303-0.172,0.012-1.107-0.24-0.844
			C-35.311,139.771-35.001,140.433-34.771,140.304z M-34.771,140.665c-0.042-0.098-0.32-0.146-0.36,0
			C-35.213,140.944-34.663,140.925-34.771,140.665z M-34.892,141.628c-0.296-0.471-0.568,1.287-0.603,0.963
			c0.014,0.131,0.609,0.188,0.12,0.482C-34.835,142.704-34.672,141.979-34.892,141.628z M-36.097,150.78
			C-36.386,151.593-35.327,151.292-36.097,150.78L-36.097,150.78z M-35.734,151.743c0.007-0.121-0.382-0.393-0.362-0.121
			C-36.082,151.821-35.747,151.94-35.734,151.743z M-36.699,155.597c0.147,0.498,0.657-0.656,0.121-0.119
			C-36.624,155.522-36.737,155.464-36.699,155.597z M-36.94,156.802c0.296,0.371,0.811-1.119,0.241-0.723
			C-36.866,156.196-37.042,156.671-36.94,156.802z M-36.578,156.923c0.034,0.031-0.528,0.301-0.482,0.119
			C-37.347,158.177-36.027,157.464-36.578,156.923z M-36.699,158.005c-0.261-0.398-0.544,0.281-0.481,0
			C-37.414,159.04-36.546,158.237-36.699,158.005z M-36.819,159.21c0.054-0.176-0.279-0.322-0.361-0.24
			C-37.401,159.19-36.901,159.481-36.819,159.21z M-36.819,159.571c-0.01-0.045-0.541-0.238-0.482,0
			C-37.242,159.802-36.781,159.724-36.819,159.571z M-37.422,160.173c0.455,0.699,0.58-0.578,0.12-0.121
			C-37.325,160.077-37.492,160.065-37.422,160.173z M-39.107,176.911c0.366-0.531,0.133,0.291,0.362,0
			C-38.972,175.962-39.485,177.462-39.107,176.911z M-38.745,177.394C-39.658,177.362-38.921,178.101-38.745,177.394
			L-38.745,177.394z M-39.348,181.608c-0.157-0.633,0.752-1.82,0-2.168C-39.293,180.397-39.617,180.864-39.348,181.608z
			 M-39.709,183.776C-40.491,184.05-39.491,184.812-39.709,183.776L-39.709,183.776z M-42.72,204.851
			c0.017-0.432,0.674-0.844,0.24-1.326C-42.66,203.987-42.824,204.433-42.72,204.851z M-44.045,211.954
			C-44.191,212.694-43.927,211.368-44.045,211.954L-44.045,211.954z"/>
		<path fill-rule="evenodd" clip-rule="evenodd" fill="#E75249" d="M28.21,14.459c0.171,0.094,1.097,0.818,0.12,0.723
			c-0.05-0.004-1.836-1.715-0.241-1.807C28.829,13.334,29.176,15.104,28.21,14.459z M27.97,13.857
			C28.405,14.467,28.421,13.427,27.97,13.857L27.97,13.857z"/>
		<path fill-rule="evenodd" clip-rule="evenodd" fill="#E75249" d="M47.719,0.25c0.403-0.402,1.17,0.126,0.964,0.481
			C48.481,1.076,47.145,0.823,47.719,0.25z"/>
		<path fill-rule="evenodd" clip-rule="evenodd" fill="#E75249" d="M36.88,5.309c1.354-0.594,2.893,0.638,2.891,1.926
			c-0.002,0.531-0.378,1.383-0.964,1.565c-0.206,0.065-1.519,0.311-1.686,0.24C36.285,8.694,35.806,5.779,36.88,5.309z"/>
		<path fill-rule="evenodd" clip-rule="evenodd" fill="#E75249" d="M48.441,6.632c1.243-0.61,1.916,1.741,1.083,2.168
			C48.666,9.24,47.099,7.292,48.441,6.632z"/>
		<path fill-rule="evenodd" clip-rule="evenodd" fill="#E75249" d="M20.143,7.354c0.489-0.496,0.811,0.402,0.481,0.603
			C20.276,8.167,19.938,7.562,20.143,7.354z"/>
		<path fill-rule="evenodd" clip-rule="evenodd" fill="#E75249" d="M26.885,10.245c0.572-0.576,0.941,0.508,0.603,0.723
			C27.124,11.198,26.565,10.566,26.885,10.245z"/>
		<path fill-rule="evenodd" clip-rule="evenodd" fill="#E75249" d="M22.669,16.146c0.771-0.674,0.987,0.902,2.048,0.964
			c0.428,0.024,0.833-0.566,1.205-0.603c0.904-0.087,2.089,0.749,2.288,1.445c-0.007-0.025,0.141,1.627,0,1.807
			C28.454,19.448,26.585,20,27.127,20C25.185,20.002,23.982,17.073,22.669,16.146z"/>
		<path fill-rule="evenodd" clip-rule="evenodd" fill="#E75249" d="M32.666,17.351c0.624-0.625,1.172,0.765,0.602,0.964
			C32.829,18.466,32.245,17.771,32.666,17.351z"/>
		<path fill-rule="evenodd" clip-rule="evenodd" fill="#E75249" d="M42.18,18.916c0.504-0.042,2.785,0.838,3.01,1.564
			c0.095,0.305-0.368,0.563-0.36,0.723c0.012,0.293,1.639,1.166,0.722,1.807c-0.271,0.189-0.992-0.312-1.444-0.12
			c-0.208,0.089-0.033,0.448-0.361,0.481c-0.809,0.084-2.525-0.404-3.012-1.205C40.083,21.093,40.367,19.063,42.18,18.916z
			 M44.829,22.287C44.907,22.964,45.55,22.322,44.829,22.287L44.829,22.287z"/>
	</g>
</g>
<g id="Layer_2">
</g>
<g id="Layer_1">
	<g display="none">
		<g display="inline">
			<path fill="#414042" d="M15.83,4.49c-0.1,0.191-0.191,0.207-0.307,0.307c-0.49,0.424-2.449,0.341-2.615,0.44
				c-0.025,0.017-0.05,0.033-0.075,0.033c-0.05,0-0.149-0.075-0.149-0.249c0-0.149,0.149-0.365,0.324-0.581
				c-2.889,0.166-6.134,2.481-6.134,3.13c0,0.266,0.274,0.605,2.059,1.07c1.801,0.465,4.184,1.146,4.184,2.922
				c0,1.635-2.806,3.76-7.346,3.76c-1.951,0-2.598-0.863-2.598-1.552c0-0.806,0.838-1.071,0.946-1.071
				c0.091,0,0.149,0.042,0.149,0.1c0,0.075-0.108,0.15-0.108,0.225c0,0.324,1.129,0.681,2.067,0.681
				c2.532,0,5.221-1.478,5.221-2.225c0-0.522-1.461-0.921-3.32-1.361C6.16,9.662,5.155,8.956,5.155,7.77
				c0-2.599,5.404-4.74,8.367-4.74c1.594,0,2.416,0.457,2.416,0.797C15.938,4.018,15.913,4.316,15.83,4.49z"/>
			<path fill="#414042" d="M15.249,15.373c-0.506,0-0.913-0.308-0.913-0.955c-1.635,2.498-3.42,5.438-3.569,5.628
				c-0.083,0.108-0.141,0.157-0.199,0.157c-0.066,0-0.573-0.24-0.598-0.705c0-0.315,0.05-0.539,0.199-0.797
				c0.274-0.457,7.363-12.086,7.786-12.359c0.125-0.084,0.224-0.1,0.299-0.1c0.058,0,0.108,0.008,0.158,0.008
				c0.042,0,0.1-0.017,0.149-0.017c0.083,0,0.141,0.042,0.208,0.249c0.033,0.092,0.066,0.149,0.066,0.216
				c0,0.075-0.042,0.166-0.166,0.323l-2.366,3.604c0,0,2.075-2.034,3.403-2.034c0.581,0,0.921,0.39,0.921,0.946
				C20.628,10.965,17.905,15.373,15.249,15.373z M18.976,9.895c-0.631,0-3.146,2.481-4.2,3.893c0.149,0.183,0.349,0.266,0.581,0.266
				c1.345,0,3.785-2.781,3.785-3.984C19.142,9.969,19.076,9.895,18.976,9.895z"/>
			<path fill="#414042" d="M22.089,12.551c-0.033,0.273-0.133,0.522-0.133,0.797c0,0.531,0.39,0.83,0.896,0.83
				c1.038,0,2.183-1.711,2.54-1.711c0.216,0,0.216,0.474,0.216,0.606v0.166c0,0.374-0.191,0.564-0.39,0.788
				c-0.672,0.764-1.893,1.379-2.922,1.379c-1.104,0-1.619-0.715-1.619-1.785c0-2.299,1.502-5.661,2.822-7.529
				c1.021-1.443,2.606-3.469,3.744-3.469c0.506,0,1.004,0.323,1.004,0.863C28.248,5.395,23.5,10.981,22.089,12.551z M26.787,3.876
				c-0.44,0-2.797,3.387-3.129,3.984c-0.465,0.83-0.93,1.901-1.229,2.806C23.234,9.711,26.87,4.896,26.87,4
				C26.87,3.934,26.854,3.876,26.787,3.876z"/>
			<path fill="#414042" d="M32.423,13.215c0,0.141-0.008,0.273-0.05,0.356c-0.224,0.44-1.494,1.802-2.606,1.802
				c-0.863,0-1.237-0.689-1.237-1.387c0-0.273,0.058-0.548,0.166-0.789c-0.913,1.188-2.258,2.143-3.088,2.143
				c-0.714,0-1.212-0.549-1.295-1.138c-0.025-0.142-0.033-0.274-0.033-0.415c0-2.465,3.121-5.08,4.964-5.08
				c0.639,0,0.996,0.249,1.087,0.523c0.274-0.424,0.407-0.457,0.747-0.457c0.349,0,0.631,0.133,0.631,0.432
				c0,0.125-0.042,0.273-0.116,0.349c-0.125,0.133-1.511,2.399-1.785,3.894c-0.017,0.058-0.025,0.141-0.025,0.232
				c0,0.207,0.058,0.456,0.266,0.456c0.664,0,1.834-1.47,1.967-1.585c0.058-0.051,0.125-0.075,0.183-0.075
				c0.091,0,0.166,0.066,0.174,0.157C32.39,12.741,32.423,12.99,32.423,13.215z M27.036,11.271c-0.73,0.756-1.444,2.018-1.444,2.516
				c0,0.133,0.05,0.207,0.166,0.207c0.315,0,2.208-1.651,2.839-2.432c0.374-0.473,0.938-1.278,1.378-1.867
				C29.41,9.695,28.323,9.928,27.036,11.271z"/>
			<path fill="#414042" d="M38.226,8.766c0,0.266-0.1,0.572-0.199,0.705c-0.216,0.291-0.838,0.631-1.328,0.631
				c-0.274,0-0.257-0.133-0.374-0.191c-0.058-0.024-0.083-0.091-0.083-0.157c0-0.142,0.125-0.166,0.199-0.398
				c-1.561,0.083-3.163,1.395-3.163,1.669c0,0.314,1.395,0.215,2.822,0.879c0.515,0.241,0.772,0.748,0.772,1.055
				c0,1.494-2.59,2.432-3.968,2.432c-1.204,0-1.577-0.564-1.577-0.987c0-0.598,0.34-1.153,0.681-1.153
				c0.208,0,0.407,0.016,0.407,0.174c0,0.041-0.008,0.092-0.008,0.133c0,0.307,0.299,0.506,0.448,0.506
				c1.395,0,2.532-0.522,2.532-0.896c0-0.307-1.137-0.432-2.225-0.755c-0.556-0.166-1.17-0.415-1.17-1.153
				c0-2.001,3.769-3.263,5.03-3.263c1.22,0,1.204,0.564,1.204,0.714V8.766z"/>
			<path fill="#414042" d="M45.115,13.215c0,0.141-0.017,0.273-0.058,0.356c-0.249,0.507-1.519,1.817-2.88,1.817
				c-0.822,0-1.37-0.348-1.37-1.211c0-1.121,1.411-3.479,1.926-4.367c-0.921,0.648-4.159,4.316-4.848,5.271
				c-0.066,0.1-0.407,0.258-0.573,0.258c-0.183,0-0.307-0.142-0.39-0.142c-0.05,0-0.108-0.009-0.108-0.091
				c0-0.033,0.008-0.075,0.033-0.142c0.888-2.059,2.025-4.591,4.964-9.712c0.614-1.07,1.229-2,1.428-2.258
				c0.191-0.249,0.606-0.473,1.229-0.473c0.116,0,0.232,0.016,0.232,0.323c0,0.091-0.017,0.183-0.05,0.266
				c-0.133,0.257-3.196,4.831-4.864,8.21c0.921-1.121,2.706-2.973,3.76-2.973c0.183,0,0.473,0.084,0.598,0.133
				c0.232,0.092,0.282,0.324,0.282,0.564c0,0.424-2.158,4.135-2.158,4.79c0,0.224,0.1,0.332,0.291,0.332
				c0.066,0,0.141-0.017,0.224-0.042c0.49-0.133,1.768-1.443,1.917-1.576c0.066-0.051,0.125-0.075,0.183-0.075
				c0.091,0,0.166,0.066,0.174,0.157C45.074,12.741,45.115,12.99,45.115,13.215z"/>
		</g>
	</g>
</g>
<g id="Layer_7">
	<path fill="#FCD243" d="M13.116,11.562c0-1.776-2.382-2.457-4.184-2.922C7.147,8.176,6.874,7.836,6.874,7.57
		c0-0.648,3.246-2.964,6.134-3.13c-0.174,0.216-0.324,0.432-0.324,0.581c0,0.174,0.1,0.249,0.149,0.249
		c0.025,0,0.05-0.017,0.075-0.033c0.166-0.1,2.125-0.017,2.615-0.44c0.116-0.1,0.208-0.115,0.307-0.307
		c0.083-0.174,0.108-0.473,0.108-0.664c0-0.34-0.822-0.797-2.416-0.797c-2.963,0-8.367,2.142-8.367,4.74
		c0,1.187,1.004,1.893,2.972,2.349c1.859,0.44,3.32,0.839,3.32,1.361c0,0.747-2.689,2.225-5.221,2.225
		c-0.343,0-0.71-0.048-1.04-0.125c0.064,0.085,0.129,0.17,0.172,0.246c0.309,0.556-0.128,1.048,0.195,1.47
		c0.005,0.007,0.012,0.01,0.017,0.016c0.069,0.003,0.127,0.012,0.199,0.012C10.31,15.322,13.116,13.197,13.116,11.562z"/>
	<path fill="#FCD243" d="M19.707,8.591c-1.328,0-3.403,2.034-3.403,2.034l2.366-3.604c0.125-0.157,0.166-0.248,0.166-0.323
		c0-0.066-0.033-0.124-0.066-0.216c-0.066-0.207-0.125-0.249-0.208-0.249c-0.05,0-0.108,0.017-0.149,0.017
		c-0.05,0-0.1-0.008-0.158-0.008c-0.075,0-0.174,0.016-0.299,0.1c-0.423,0.273-7.512,11.902-7.786,12.359
		c-0.149,0.258-0.199,0.481-0.199,0.797c0.025,0.465,0.531,0.705,0.598,0.705c0.058,0,0.116-0.049,0.199-0.157
		c0.149-0.19,1.934-3.13,3.569-5.628c0,0.647,0.407,0.955,0.913,0.955c2.656,0,5.379-4.408,5.379-5.836
		C20.628,8.98,20.288,8.591,19.707,8.591z M15.357,14.053c-0.232,0-0.432-0.083-0.581-0.266c1.054-1.411,3.569-3.893,4.2-3.893
		c0.1,0,0.166,0.074,0.166,0.174C19.142,11.271,16.702,14.053,15.357,14.053z"/>
	<path fill="#FCD243" d="M24.28,13.787c0-0.136,0.013-0.271,0.031-0.407c-0.447,0.407-0.964,0.798-1.459,0.798
		c-0.506,0-0.896-0.299-0.896-0.83c0-0.274,0.1-0.523,0.133-0.797c1.411-1.569,6.159-7.156,6.159-9.064
		c0-0.54-0.498-0.863-1.004-0.863c-1.137,0-2.723,2.025-3.744,3.469c-1.32,1.868-2.822,5.23-2.822,7.529
		c0,1.07,0.515,1.785,1.619,1.785c0.718,0,1.526-0.303,2.18-0.744c-0.081-0.145-0.14-0.299-0.163-0.46
		C24.289,14.061,24.28,13.928,24.28,13.787z M23.658,7.86c0.332-0.598,2.689-3.984,3.129-3.984c0.066,0,0.083,0.058,0.083,0.124
		c0,0.896-3.636,5.711-4.441,6.666C22.728,9.762,23.193,8.69,23.658,7.86z"/>
	<path fill="#FCD243" d="M32.008,13.248c0.205,0,0.4,0.017,0.405,0.169c0.008-0.062,0.01-0.131,0.01-0.202
		c0-0.225-0.033-0.474-0.05-0.582c-0.008-0.091-0.083-0.157-0.174-0.157c-0.058,0-0.125,0.024-0.183,0.075
		c-0.133,0.115-1.303,1.585-1.967,1.585c-0.208,0-0.266-0.249-0.266-0.456c0-0.092,0.008-0.175,0.025-0.232
		c0.274-1.494,1.66-3.761,1.785-3.894c0.075-0.075,0.116-0.224,0.116-0.349c0-0.299-0.282-0.432-0.631-0.432
		c-0.34,0-0.473,0.033-0.747,0.457c-0.091-0.274-0.448-0.523-1.087-0.523c-1.742,0-4.621,2.336-4.933,4.673
		c0.49-0.446,0.895-0.913,1.081-0.913c0.216,0,0.216,0.474,0.216,0.606v0.166c0,0.374-0.191,0.564-0.39,0.788
		c-0.203,0.23-0.459,0.444-0.742,0.635c0.214,0.385,0.614,0.678,1.132,0.678c0.83,0,2.175-0.955,3.088-2.143
		c-0.108,0.241-0.166,0.516-0.166,0.789c0,0.697,0.374,1.387,1.237,1.387c0.547,0,1.13-0.33,1.611-0.717
		c-0.031-0.087-0.05-0.174-0.05-0.255C31.328,13.804,31.668,13.248,32.008,13.248z M28.597,11.562
		c-0.631,0.78-2.523,2.432-2.839,2.432c-0.116,0-0.166-0.074-0.166-0.207c0-0.498,0.714-1.76,1.444-2.516
		c1.287-1.344,2.374-1.576,2.938-1.576C29.535,10.284,28.97,11.09,28.597,11.562z"/>
	<path fill="#FCD243" d="M25.218,14.027c0.199-0.224,0.39-0.414,0.39-0.788v-0.166c0-0.133,0-0.606-0.216-0.606
		c-0.187,0-0.591,0.467-1.081,0.913c-0.018,0.136-0.031,0.271-0.031,0.407c0,0.141,0.008,0.273,0.033,0.415
		c0.022,0.161,0.082,0.315,0.163,0.46C24.759,14.472,25.015,14.258,25.218,14.027z"/>
	<path fill="#FCD243" d="M36.101,11.902c-1.428-0.664-2.822-0.564-2.822-0.879c0-0.274,1.602-1.586,3.163-1.669
		c-0.075,0.232-0.199,0.257-0.199,0.398c0,0.066,0.025,0.133,0.083,0.157c0.116,0.059,0.1,0.191,0.374,0.191
		c0.49,0,1.112-0.34,1.328-0.631c0.1-0.133,0.199-0.439,0.199-0.705V8.707c0-0.149,0.017-0.714-1.204-0.714
		c-1.262,0-5.03,1.262-5.03,3.263c0,0.738,0.614,0.987,1.17,1.153c1.087,0.323,2.225,0.448,2.225,0.755
		c0,0.374-1.137,0.896-2.532,0.896c-0.149,0-0.448-0.199-0.448-0.506c0-0.041,0.008-0.092,0.008-0.133
		c0-0.002-0.001-0.003-0.002-0.005c-0.007,0.061-0.019,0.113-0.04,0.154c-0.114,0.224-0.5,0.685-0.996,1.085
		c0.129,0.364,0.555,0.732,1.527,0.732c1.378,0,3.968-0.938,3.968-2.432C36.873,12.65,36.615,12.144,36.101,11.902z"/>
	<path fill="#FCD243" d="M32.374,13.571c0.021-0.041,0.033-0.094,0.04-0.154c-0.004-0.152-0.2-0.169-0.405-0.169
		c-0.34,0-0.681,0.556-0.681,1.153c0,0.081,0.019,0.168,0.05,0.255C31.874,14.256,32.26,13.795,32.374,13.571z"/>
	<path fill="#FCD243" d="M44.883,12.476c-0.058,0-0.116,0.024-0.183,0.075c-0.149,0.133-1.428,1.443-1.917,1.576
		c-0.083,0.025-0.158,0.042-0.224,0.042c-0.191,0-0.291-0.108-0.291-0.332c0-0.655,2.158-4.366,2.158-4.79
		c0-0.24-0.05-0.473-0.282-0.564C44.02,8.434,43.729,8.35,43.546,8.35c-1.054,0-2.839,1.852-3.76,2.973
		c1.668-3.379,4.731-7.953,4.864-8.21c0.033-0.083,0.05-0.175,0.05-0.266c0-0.308-0.116-0.323-0.232-0.323
		c-0.623,0-1.038,0.224-1.229,0.473c-0.199,0.258-0.813,1.188-1.428,2.258c-2.938,5.121-4.076,7.653-4.964,9.712
		c-0.025,0.066-0.033,0.108-0.033,0.142c0,0.082,0.058,0.091,0.108,0.091c0.083,0,0.208,0.142,0.39,0.142
		c0.166,0,0.506-0.158,0.573-0.258c0.689-0.955,3.926-4.623,4.848-5.271c-0.515,0.889-1.926,3.246-1.926,4.367
		c0,0.863,0.548,1.211,1.37,1.211c1.361,0,2.631-1.311,2.88-1.817c0.042-0.083,0.058-0.216,0.058-0.356
		c0-0.225-0.042-0.474-0.058-0.582C45.049,12.542,44.974,12.476,44.883,12.476z"/>
</g>
<g id="Layer_5">
	<path fill="#4DC2BD" d="M7.467,6.024C7.509,5.268,6.847,5.93,7.467,6.024L7.467,6.024z"/>
	<path fill="#4DC2BD" d="M9.613,13.732c-0.028,0.172,0.692,0.107,0.488-0.098C9.918,13.451,9.62,13.691,9.613,13.732z"/>
	<path fill="#4DC2BD" d="M13.116,11.562c0-1.776-2.382-2.457-4.184-2.922c-0.026-0.007-0.045-0.013-0.071-0.02
		C8.854,8.636,8.839,8.641,8.833,8.659c-0.196,0.607,0.795,1.056,0.684,1.367c-0.013,0.033-0.576,0.306-0.583,0.29
		c1.456,0.366,2.514,0.721,2.514,1.164c0,0.342-0.567,0.836-1.42,1.272c0.116,0.082,0.217,0.179,0.27,0.297
		c0.283,0.631,0.03,0.24,0.683,0.586c0.129,0.068,0.226,0.193,0.316,0.325C12.466,13.239,13.116,12.346,13.116,11.562z"/>
	<path fill="#4DC2BD" d="M17.517,7.585c-0.024-0.08-0.136-0.186-0.272-0.255c-0.036,0.056-0.072,0.11-0.111,0.169
		c-0.028,0.159-0.15,0.392-0.191,0.293c-0.019,0.029-0.037,0.056-0.056,0.086C17.182,8.086,17.674,8.106,17.517,7.585z"/>
	<path fill="#4DC2BD" d="M19.176,12.367c-0.052,0.018-0.367,0.119-0.194,0.291c0.054,0.055,0.107,0.064,0.158,0.058
		c0.073-0.099,0.145-0.195,0.214-0.295C19.34,12.361,19.291,12.326,19.176,12.367z"/>
	<path fill="#4DC2BD" d="M17.127,8.268c-0.433,0.292-0.149,0.696,0.193,0.808l0.413-0.629C17.611,8.235,17.386,8.093,17.127,8.268z"
		/>
	<path fill="#4DC2BD" d="M14.941,13.915c-0.057-0.038-0.118-0.07-0.165-0.128c0.505-0.676,1.345-1.597,2.153-2.373
		c-0.159-0.211-0.365-0.167-0.485-0.414c-0.065-0.135-0.085-0.281-0.082-0.432c-0.026,0.024-0.06,0.057-0.06,0.057l0.06-0.091
		c0.021-0.472,0.258-0.988,0.082-1.388c-0.037-0.083-0.125-0.148-0.236-0.21c-1.048,1.649-2.391,3.816-3.547,5.693
		c0.559,0.078,1.182,0.142,1.428,0.166c0.083-0.126,0.165-0.252,0.246-0.377c0,0.037,0.014,0.062,0.017,0.097
		c0.078-0.153,0.154-0.307,0.14-0.294C14.576,14.141,14.761,14.018,14.941,13.915z"/>
	<path fill="#4DC2BD" d="M24.836,4.658c-0.5,0.333,0.018,0.955,0.406,0.907c0.103-0.138,0.205-0.271,0.307-0.402
		C25.525,4.797,24.952,4.581,24.836,4.658z M25.226,5.34c-0.253,0.112-0.412-0.27-0.293-0.39C25.19,4.694,25.429,5.251,25.226,5.34z
		"/>
	<path fill="#4DC2BD" d="M26.952,6.351c0.331-0.511,0.623-1.001,0.842-1.441c-0.167-0.115-0.354-0.174-0.519-0.154
		C26.054,4.905,26.369,5.85,26.952,6.351z"/>
	<path fill="#4DC2BD" d="M20.869,14.581c0.133,0.287,0.34,0.508,0.622,0.648c-0.019-0.048-0.041-0.094-0.07-0.132
		C21.179,14.789,20.998,14.638,20.869,14.581z"/>
	<path fill="#4DC2BD" d="M22.494,14.904c-0.004,0.008,0.104,0.254,0.223,0.469c0.127-0.019,0.255-0.044,0.384-0.077
		C22.968,15.003,22.58,14.696,22.494,14.904z"/>
	<path fill="#4DC2BD" d="M26.719,9.777c-0.088,0.067-0.177,0.132-0.263,0.204c0.22,0.479,0.542,1.043,0.623,1.215
		C26.956,10.893,26.863,10.245,26.719,9.777z"/>
	<path fill="#4DC2BD" d="M28.696,13.197c-0.108,0.241-0.166,0.516-0.166,0.789c0,0.697,0.374,1.387,1.237,1.387
		c0.547,0,1.13-0.33,1.611-0.717c-0.031-0.087-0.05-0.174-0.05-0.255c0-0.267,0.074-0.517,0.179-0.722
		c-0.1-0.1-0.188-0.203-0.258-0.311c-0.396,0.388-0.863,0.767-1.2,0.767c-0.208,0-0.266-0.249-0.266-0.456
		c0-0.092,0.008-0.175,0.025-0.232c0.079-0.429,0.253-0.921,0.459-1.408c-0.194-0.029-0.427,0.049-0.65-0.062
		c-0.113-0.057-0.237-0.434-0.391-0.488c-0.248-0.09-0.425-0.072-0.567-0.009c-0.02,0.025-0.044,0.059-0.063,0.083
		c-0.075,0.093-0.17,0.199-0.275,0.312c-0.143,0.377-0.122,0.854-0.168,0.882c-0.306,0.186-0.281-0.018-0.541-0.184
		c-0.091,0.085-0.181,0.167-0.274,0.25c-0.109,0.295-0.4,0.546-0.688,0.589c-0.147,0.119-0.286,0.227-0.41,0.315
		c-0.085,0.537-0.701,0.665-1.016,1.178c-0.053,0.086,0.013,0.237,0.061,0.373c0.104,0.027,0.205,0.062,0.322,0.062
		C26.438,15.34,27.783,14.385,28.696,13.197z"/>
	<path fill="#4DC2BD" d="M35.179,14.318c-0.071,0.127-0.001,0.303,0.121,0.465c0.19-0.093,0.372-0.195,0.541-0.308
		C35.627,14.226,35.314,14.076,35.179,14.318z"/>
	<path fill="#4DC2BD" d="M32.184,13.848c-0.184,0.235-0.465,0.534-0.806,0.809c0.129,0.364,0.555,0.732,1.527,0.732
		c0.042,0,0.089-0.004,0.133-0.005C33.028,14.732,32.601,14.043,32.184,13.848z"/>
	<path fill="#4DC2BD" d="M36.295,9.614c-0.03,0.042-0.054,0.081-0.054,0.139c0,0.066,0.025,0.133,0.083,0.157
		c0.105,0.053,0.112,0.162,0.314,0.183C36.568,9.898,36.446,9.722,36.295,9.614z"/>
	<path fill="#4DC2BD" d="M32.184,13.848c-0.01-0.005-0.02-0.014-0.03-0.018c-0.117-0.049-0.392,0.076-0.488,0
		c-0.061-0.048-0.108-0.1-0.159-0.15c-0.105,0.205-0.179,0.455-0.179,0.722c0,0.081,0.019,0.168,0.05,0.255
		C31.719,14.382,32,14.083,32.184,13.848z"/>
	<path fill="#4DC2BD" d="M42.733,9.811c-0.515,0.889-1.926,3.246-1.926,4.367c0,0.863,0.548,1.211,1.37,1.211
		c1.361,0,2.631-1.311,2.88-1.817c0.008-0.016,0.011-0.04,0.017-0.059c-0.218,0.024-0.541-0.222-0.824-0.528
		c-0.459,0.438-1.139,1.054-1.467,1.143c-0.083,0.025-0.158,0.042-0.224,0.042c-0.191,0-0.291-0.108-0.291-0.332
		c0-0.337,0.57-1.479,1.124-2.569c-0.005-0.023-0.016-0.052-0.016-0.072c0.001-0.077,0.132-0.21,0.219-0.326
		c0.021-0.041,0.041-0.08,0.061-0.12c0.003-0.014,0.016-0.031,0.013-0.042c-0.054-0.188-0.717-0.17-0.487-0.682
		c0.12-0.269,0.701-0.216,1.017-0.372c0.104-0.224,0.178-0.401,0.209-0.512c-0.037-0.148-0.102-0.308-0.086-0.512
		c-0.042-0.061-0.095-0.115-0.177-0.147C44.02,8.434,43.729,8.35,43.546,8.35c-1.054,0-2.839,1.852-3.76,2.973
		c1.668-3.379,4.731-7.953,4.864-8.21c0.033-0.083,0.05-0.175,0.05-0.266c0-0.308-0.116-0.323-0.232-0.323
		c-0.623,0-1.038,0.224-1.229,0.473c-0.199,0.258-0.813,1.188-1.428,2.258c-0.721,1.256-1.332,2.354-1.859,3.33
		c0.145,0.208,0.324,0.562,0.3,0.758c-0.014,0.115-0.326,0.027-0.391,0.097c-0.123,0.135-0.29,1.221-0.39,1.366
		c-0.108,0.16-0.237-0.102-0.293,0.195c-0.066,0.355,0.183,0.463,0.195,0.684c0.04,0.709-0.241,0.885-0.684,1.17
		c-1.016,0.658,0.389,0.416,0.586,0.488c0,0,0.01,0.012,0.023,0.028C40.525,11.963,42.128,10.236,42.733,9.811z"/>
</g>
<g id="Layer_6">
	<path fill="#E75249" d="M15.114,4.979c0.169-0.048,0.319-0.104,0.409-0.182c0.116-0.1,0.208-0.115,0.307-0.307
		c0.029-0.061,0.043-0.146,0.06-0.228c-0.103,0.01-0.209,0.031-0.325,0.082C15.302,4.458,15.156,4.706,15.114,4.979z"/>
	<path fill="#E75249" d="M8.926,5.787c0.448-0.256,0.946-0.501,1.47-0.712c-0.007-0.041-0.021-0.078-0.009-0.128
		c0.011-0.045,0.71-1.115,0.964-1.203c0.149-0.053,0.653,0.127,0.843,0c0.289-0.194,0.502-0.432,0.69-0.683
		c-1.378,0.12-3.093,0.602-4.559,1.319C8.223,5.046,8.493,5.55,8.926,5.787z"/>
	<path fill="#E75249" d="M6.413,6.873C6.222,7.888,6.152,6.65,5.578,6.522C5.543,6.574,5.511,6.626,5.48,6.679
		C5.552,7.119,5.425,7.257,5.242,7.22C5.19,7.4,5.155,7.583,5.155,7.77c0,1.187,1.004,1.893,2.972,2.349
		c1.859,0.44,3.32,0.839,3.32,1.361c0,0.747-2.689,2.225-5.221,2.225c-0.938,0-2.067-0.356-2.067-0.681
		c0-0.074,0.108-0.149,0.108-0.225c0-0.058-0.058-0.1-0.149-0.1c-0.108,0-0.946,0.266-0.946,1.071c0,0.688,0.647,1.552,2.598,1.552
		c4.541,0,7.346-2.125,7.346-3.76c0-1.776-2.382-2.457-4.184-2.922C8.721,8.586,8.535,8.533,8.364,8.481
		C8.447,8.656,8.683,8.725,8.46,8.8C8.293,8.857,7.661,8.475,7.625,8.22C7.008,7.96,6.874,7.748,6.874,7.57
		c0-0.242,0.454-0.718,1.173-1.227C7.504,5.733,6.666,5.533,6.413,6.873z"/>
	<path fill="#E75249" d="M15.249,15.373c1.508,0,3.037-1.421,4.077-2.911c-0.225-0.439-0.421-0.899-0.559-1.314
		c-0.735,1.299-2.388,2.905-3.41,2.905c-0.232,0-0.432-0.083-0.581-0.266c0.883-1.183,2.789-3.111,3.755-3.707
		c-0.108-0.495-0.335-0.447-0.664-0.723c-0.853,0.577-1.564,1.267-1.564,1.267l1.156-1.761c-0.223-0.357-0.374-0.718-0.518-1.071
		c-1.344,2.07-3.703,5.892-5.254,8.422c0.009,0.057,0.025,0.106,0.026,0.171c-0.02-0.036-0.048-0.063-0.072-0.096
		c-0.814,1.328-1.397,2.285-1.472,2.41c-0.135,0.233-0.182,0.447-0.191,0.718c0.328,0.161,0.656,0.308,0.93,0.413
		c0.234-0.366,0.721-1.152,1.325-2.117c-0.094-0.472-0.181-0.945-0.159-0.967c0.239-0.24,0.513-0.175,0.766,0.002
		c0.478-0.758,0.994-1.565,1.496-2.332C14.336,15.065,14.743,15.373,15.249,15.373z"/>
	<path fill="#E75249" d="M27.728,2.898c0.033-0.048,0.042-0.085,0.058-0.126c-0.164-0.089-0.348-0.149-0.542-0.149
		c-0.108,0-0.223,0.034-0.338,0.068C26.978,2.978,27.499,3.231,27.728,2.898z"/>
	<path fill="#E75249" d="M22.067,11.57c-0.183,0.174-0.205,0.957-0.109,1.759c0.004-0.267,0.098-0.511,0.13-0.778
		c0.24-0.268,0.583-0.658,0.977-1.12C22.685,11.406,22.259,11.389,22.067,11.57z"/>
	<path fill="#E75249" d="M24.313,14.202c-0.025-0.142-0.033-0.274-0.033-0.415c0-0.136,0.013-0.271,0.031-0.407
		c-0.447,0.407-0.964,0.798-1.459,0.798c-0.457,0-0.804-0.254-0.87-0.692c0.103,0.735,0.299,1.455,0.567,1.696
		c0.051,0.046,0.193,0.098,0.375,0.15c0.538-0.113,1.083-0.354,1.552-0.67C24.396,14.518,24.336,14.363,24.313,14.202z"/>
	<path fill="#E75249" d="M21.948,14.941c-0.111-0.707-0.743-0.697-1.222-0.819c0.053,0.283,0.152,0.528,0.302,0.727
		c0.029,0.02,0.056,0.047,0.077,0.093c0.001,0.002,0,0.003,0,0.004c0.147,0.161,0.334,0.28,0.561,0.358
		C21.797,15.058,21.936,14.864,21.948,14.941z"/>
	<path fill="#E75249" d="M25.218,14.027c-0.203,0.23-0.459,0.444-0.742,0.635c0.099,0.178,0.247,0.322,0.42,0.44
		c0.128-0.322,0.265-0.73,0.37-1.131C25.25,13.99,25.235,14.009,25.218,14.027z"/>
	<path fill="#E75249" d="M25.367,12.478c-0.091-0.323-0.258-0.542-0.466-0.696c-0.304,0.514-0.517,1.056-0.589,1.599
		C24.784,12.949,25.172,12.51,25.367,12.478z"/>
	<path fill="#E75249" d="M28.041,13.935c-0.024-0.025-0.044-0.04-0.071-0.077c0.106-0.102,0.184-0.117,0.239-0.097
		c0.077-0.081,0.151-0.163,0.225-0.249c-0.102-0.082-0.214-0.144-0.345-0.137c-0.812,0.047-0.747,0.513-0.481,0.959
		C27.755,14.209,27.899,14.075,28.041,13.935z"/>
	<path fill="#E75249" d="M26.885,10.245c-0.27,0.271,0.086,0.758,0.422,0.767c0.101-0.095,0.2-0.188,0.297-0.271
		C27.658,10.372,27.339,9.788,26.885,10.245z"/>
	<path fill="#E75249" d="M24.28,13.787c0,0.141,0.008,0.273,0.033,0.415c0.022,0.161,0.082,0.315,0.163,0.46
		c0.283-0.19,0.539-0.404,0.742-0.635c0.017-0.019,0.032-0.037,0.048-0.056c0.114-0.431,0.191-0.84,0.173-1.077
		c-0.012-0.155-0.037-0.292-0.072-0.417c-0.195,0.032-0.583,0.472-1.056,0.902C24.293,13.516,24.28,13.651,24.28,13.787z"/>
	<path fill="#E75249" d="M37.121,9.04c0.104,0.043,0.644-0.034,1.091-0.114c0.007-0.054,0.014-0.108,0.014-0.16V8.707
		c0-0.149,0.017-0.714-1.204-0.714c-0.154,0-0.346,0.02-0.563,0.056C36.614,8.537,36.848,8.927,37.121,9.04z"/>
	<path fill="#E75249" d="M41.938,6.993c0.365-0.365,0.112-1.019-0.28-1.47c-0.247,0.432-0.48,0.845-0.702,1.24
		C41.334,7.039,41.756,7.176,41.938,6.993z"/>
	<path fill="#E75249" d="M42.059,11.45C42.436,12.456,43.755,11.135,42.059,11.45L42.059,11.45z"/>
</g>
</svg>
